<?xml version="1.0" standalone="no"?>
<!DOCTYPE svg PUBLIC "-//W3C//DTD SVG 1.1//EN" "http://www.w3.org/Graphics/SVG/1.1/DTD/svg11.dtd" >
<svg xmlns="http://www.w3.org/2000/svg">
<metadata>Generated by IcoMoon</metadata>
<defs>
<font id="icomoon" horiz-adv-x="1024">
<font-face units-per-em="1024" ascent="960" descent="-64" />
<missing-glyph horiz-adv-x="1024" />
<glyph unicode="&#x20;" horiz-adv-x="512" d="" />
<glyph unicode="&#xe900;" glyph-name="alert" d="M965.983 448.293c-0.878-187.685-120.101-362.028-297.633-426.13-46.378-17.324-99.967-27.35-155.898-27.35-44.268 0-87.070 6.281-127.562 18l3.235-0.802c-88.474 25.22-167.058 77.444-225.982 147.924-122.119 146.491-136.046 361.735-37.42 523.908 97.485 160.709 290.962 246.872 475.75 209.715 185.958-37.42 330.693-189.118 360.565-376.51 3.511-22.616 4.944-45.817 4.944-68.754 0.293-37.391 58.309-37.391 58.017 0-0.878 213.811-136.338 406.733-336.779 480.695-199.592 73.669-433.679 10.123-568.583-154.361-64.839-78.421-107.244-177.54-116.174-286.145l-0.123-1.862c-8.397-105.326 17.408-212.933 72.265-303.426 111.645-183.94 330.664-278.791 541.257-236.134 205.093 41.779 370.454 214.367 401.788 421.186 4.067 26.712 6.378 53.102 6.378 80.077 0 37.42-58.017 37.42-58.017 0zM482.977 685.275v-342.279c0-37.449 58.046-37.449 58.046 0v342.279c0 37.157-58.046 37.449-58.046 0zM541.257 225.499c0-16.158-13.099-29.257-29.257-29.257s-29.257 13.099-29.257 29.257c0 16.158 13.099 29.257 29.257 29.257s29.257-13.099 29.257-29.257zM493.714 225.499v-1.17c0.293 2.633 0.585 5.237 1.17 7.841l-0.878-3.189c0.878 2.341 2.048 4.652 2.926 6.963-0.293-0.585-0.585-1.463-1.17-2.048 1.463 2.048 2.896 3.803 4.623 5.822-0.878-0.878-1.463-1.755-2.311-2.341 2.048 1.463 3.774 2.926 5.793 4.681-0.547-0.538-1.227-0.944-1.986-1.162l-0.033-0.008c2.341 0.878 4.652 2.048 6.963 2.896-1.17-0.585-2.048-0.585-3.218-0.878 2.633 0.293 5.266 0.585 7.87 1.17h-2.341c2.633-0.293 5.237-0.585 7.841-1.17l-3.218 0.878c2.341-0.878 4.681-2.048 6.992-2.926-0.585 0.293-1.463 0.585-2.048 1.17 2.048-1.463 3.803-2.896 5.822-4.623-0.878 0.878-1.755 1.463-2.341 2.311 1.463-2.048 2.926-3.774 4.681-5.793-0.542 0.555-0.948 1.245-1.162 2.015l-0.008 0.033c0.878-2.341 2.019-4.681 2.896-6.992-0.585 1.17-0.585 2.048-0.878 3.218 0.293-2.633 0.585-5.266 1.17-7.841v2.311c-0.293-2.633-0.585-5.237-1.17-7.841l0.878 3.218c-0.878-2.341-2.048-4.681-2.926-6.992 0.293 0.585 0.585 1.463 1.17 2.048-1.463-2.048-2.926-3.803-4.652-5.822 0.878 0.878 1.463 1.755 2.341 2.341-2.048-1.463-3.803-2.926-5.822-4.652 0.555 0.542 1.245 0.948 2.015 1.162l0.033 0.008c-2.341-0.878-4.652-2.048-6.963-2.926 1.17 0.585 2.048 0.585 3.189 0.878-2.633-0.293-5.237-0.585-7.841-1.17h2.341c-3.017 0.287-5.693 0.7-8.317 1.254l0.476-0.084 3.189-0.878c-2.341 0.878-4.652 2.048-6.963 2.926 0.585-0.293 1.463-0.585 2.048-1.17-2.048 1.463-3.803 2.926-5.822 4.652 0.878-0.878 1.755-1.463 2.341-2.341-1.463 2.048-2.926 3.803-4.681 5.822 0.585-0.585 0.878-1.17 1.17-2.048-0.878 2.341-2.019 4.652-2.896 6.963 0.585-1.17 0.585-2.048 0.878-3.189-0.287 3.017-0.7 5.693-1.254 8.317l0.084-0.476v-1.17c0.878-15.067 12.785-29.872 29.023-28.994 15.067 0.585 29.872 12.756 28.994 28.994-0.585 10.737-4.037 20.597-11.586 28.145-7.245 7.129-17.173 11.551-28.133 11.615h-0.012c-22.060 0-39.175-18.286-39.731-39.76-0.585-21.475 18.256-39.439 39.146-39.731 10.152-0.293 21.182 4.067 28.438 11.323 7.841 7.812 11.586 17.379 12.171 28.409 0.878 15.097-13.926 29.608-28.994 29.023-16.53-0.878-28.438-12.785-29.316-29.023z" />
<glyph unicode="&#xe901;" glyph-name="bell" horiz-adv-x="945" d="M366.592 884.263c0 20.086 16.266 36.352 36.352 36.352h145.408c20.077 0 36.352-16.275 36.352-36.352s-16.275-36.352-36.352-36.352v0h-145.408c-20.077 0-36.352 16.275-36.352 36.352v0zM911.911 120.793c0-20.086-16.266-36.352-36.352-36.352h-290.855c0.025-0.873 0.039-1.9 0.039-2.931 0-60.252-48.844-109.095-109.095-109.095s-109.095 48.844-109.095 109.095c0 1.031 0.014 2.058 0.043 3.082l-0.003-0.151h-290.855c-20.077 0-36.352 16.275-36.352 36.352s16.275 36.352 36.352 36.352v0h36.352v290.855c0 200.788 162.771 363.559 363.559 363.559s363.559-162.771 363.559-363.559v0-290.855h36.352c20.086 0 36.352-16.266 36.352-36.352zM512 84.48h-72.704c0-20.077 16.275-36.352 36.352-36.352s36.352 16.275 36.352 36.352v0zM766.503 448c0 160.635-130.22 290.855-290.855 290.855s-290.855-130.22-290.855-290.855v0-290.855h581.711v290.855z" />
<glyph unicode="&#xe902;" glyph-name="chevron" d="M287.334 971.827c11.082 8.581 25.18 13.755 40.486 13.755 18.516 0 35.264-7.572 47.315-19.79l0.007-0.007 5.478-6.246 394.189-514.867-400.026-508.877c-12.278-15.53-31.117-25.405-52.262-25.405-15.614 0-29.971 5.385-41.314 14.399l0.136-0.105c-26.419 20.787-33.024 58.010-14.95 87.91l3.84 5.53 336.179 427.622-331.366 432.794c-8.502 11.075-13.625 25.131-13.625 40.384 0 16.489 5.986 31.579 15.904 43.216l-0.078-0.093 5.018 5.478z" />
<glyph unicode="&#xe903;" glyph-name="close" d="M924.928 939.981c4.505 4.471 10.711 7.234 17.562 7.234s13.056-2.763 17.563-7.235l43.928-43.928 3.174-3.891c2.544-3.849 4.058-8.573 4.058-13.65 0-6.857-2.762-13.069-7.235-17.584l0.002 0.002-413.645-412.262 413.594-413.594c4.471-4.505 7.234-10.711 7.234-17.562s-2.763-13.056-7.235-17.563l-43.928-43.928-3.891-3.174c-3.849-2.544-8.573-4.058-13.65-4.058-6.857 0-13.069 2.762-17.584 7.235l-413.54 413.643-46.285-46.285-365.978-367.309c-4.505-4.471-10.711-7.234-17.562-7.234s-13.056 2.763-17.563 7.235l0.002-0.002-43.981 43.93-3.174 3.891c-2.544 3.849-4.058 8.573-4.058 13.65 0 6.857 2.762 13.069 7.235 17.584l-0.002-0.002 412.262 413.594-412.211 412.211c-4.471 4.505-7.234 10.711-7.234 17.562s2.763 13.056 7.235 17.563l43.979 43.979 3.84 3.072c3.849 2.544 8.573 4.058 13.65 4.058 6.857 0 13.069-2.762 17.584-7.235l412.26-412.26z" />
<glyph unicode="&#xe904;" glyph-name="faq" d="M822.869 960c111.081 0 201.131-90.049 201.131-201.131 0-0.015 0-0.030 0-0.045v0.003-621.653c0-0.013 0-0.028 0-0.043 0-111.081-90.049-201.131-201.131-201.131h-621.739c-111.081 0-201.131 90.049-201.131 201.131 0 0.015 0 0.030 0 0.045v-0.003 621.653c0 0.013 0 0.028 0 0.043 0 111.081 90.049 201.131 201.131 201.131v0zM822.869 866.901h-621.739c-59.67-0.024-108.032-48.402-108.032-108.075v0-621.653c0-59.673 48.362-108.050 108.030-108.075h621.741c59.67 0.024 108.032 48.402 108.032 108.075v0 621.653c0 59.673-48.362 108.050-108.030 108.075h-0.002zM512 238.549c25.708 0 46.549-20.841 46.549-46.549s-20.841-46.549-46.549-46.549v0c-25.708 0-46.549 20.841-46.549 46.549s20.841 46.549 46.549 46.549v0zM605.099 750.549c74.321-0.017 135.073-58.089 139.374-131.332l0.018-0.38 0.256-7.936v-46.507c0-77.125-62.523-139.648-139.648-139.648v0c-24.021 0-43.733-18.176-46.293-41.472l-0.256-5.12v-46.507c0.013-0.414 0.021-0.9 0.021-1.389 0-25.685-20.822-46.507-46.507-46.507-24.372 0-44.365 18.747-46.345 42.607l-0.011 0.168-0.256 5.12v46.507c0 77.125 62.523 139.648 139.648 139.648v0c23.979 0 43.733 18.176 46.251 41.472l0.299 5.12v46.507c0 24.021-18.176 43.733-41.472 46.293l-5.12 0.256h-186.112c-23.979 0-43.733-18.133-46.251-41.472l-0.299-5.077v-46.507c0.004-0.217 0.006-0.474 0.006-0.731 0-25.685-20.822-46.507-46.507-46.507-24.139 0-43.983 18.391-46.284 41.926l-0.015 0.191-0.299 5.12v46.507c0 0.004 0 0.008 0 0.012 0 74.334 58.078 135.103 131.332 139.405l0.38 0.018 7.936 0.213h186.197z" />
<glyph unicode="&#xe905;" glyph-name="ic-family-tree" horiz-adv-x="971" d="M831.253 499.243c11.093 4.8 23.787 11.179 36.48 17.568 65.035-47.904 153.877-41.525 214.155 14.368 109.461 105.387 34.901 290.635-114.219 292.235-106.283 1.6-187.189-95.819-166.571-201.205-125.323-91.029-190.357-140.533-157.045 47.893 161.813 75.072 107.872 322.592-69.803 322.592-179.264 0-233.195-247.52-71.381-322.571 33.312-188.437-31.733-138.933-157.056-47.904 22.208 106.987-63.456 205.995-169.739 202.795-149.12-6.379-220.512-190.027-111.040-293.824 58.688-55.893 149.12-62.272 215.733-14.368 9.379-5.539 20.836-11.412 32.631-16.665l2.27-0.903c60.288-31.936 117.397-60.683 166.571-94.219 31.733-17.568 46.005-60.683 3.179-63.872-38.080-4.8-84.085 11.179-125.333 27.147-31.723 51.093-85.653 78.251-141.184 78.251-103.115 0-184.021-94.219-164.981-198.016 12.693-78.251 80.907-137.333 160.224-138.933 79.317-3.2 150.709 52.693 168.16 130.944 112.629-4.789 115.797-54.293 117.387-55.893v-150.101c0-15.968-4.757-30.347-15.861-41.515-11.104-11.179-25.387-15.979-41.248-15.979-36.48 0-69.803-17.557-90.421-46.304h-199.893c-11.093 0-19.029-7.989-19.029-19.168 0-9.579 7.936-19.157 19.040-19.157h842.368c9.515 0 19.029 9.579 19.029 19.157 0 11.179-9.515 19.168-19.029 19.168h-199.893c-20.387 28.181-53.172 46.304-90.19 46.304-0.081 0-0.163 0-0.244 0h0.012c-15.861 0-30.133 4.8-41.237 15.979-9.525 11.168-15.872 25.547-14.283 39.915v150.101c0 3.2 3.168 52.693 115.808 57.493 17.451-79.851 88.832-134.144 168.149-132.555 80.907 3.2 147.541 62.293 161.813 140.533 17.451 105.387-63.456 199.605-168.16 198.016-55.52 0-107.872-28.747-139.595-78.251-34.901-14.368-74.56-28.747-111.040-28.747-66.635 0-33.323 51.093-7.936 68.672 23.787 17.557 150.699 84.629 163.392 91.019zM509.195-34.123c19.040 17.568 28.555 43.125 26.976 67.072v151.701c0 3.2-1.589 86.24-149.12 92.629 0 14.368-1.589 28.736-6.347 43.115 30.144-11.179 60.277-17.568 90.421-17.568h19.040c74.56 7.979 79.317 94.219 12.693 134.133-52.352 33.536-109.461 63.883-169.749 94.219-7.925 4.8-15.861 9.579-23.787 12.779 9.515 12.768 19.029 25.547 25.376 39.925 131.669-94.219 241.131-143.723 207.819 73.451 20.619-4.789 41.237-4.789 61.867 0-33.312-217.173 76.139-167.68 207.808-73.451 6.347-14.379 15.872-27.157 25.387-39.925-7.936-3.2-15.861-7.989-23.787-12.779-60.288-30.336-117.397-60.683-169.749-94.219-71.392-43.115-61.867-134.133 31.723-134.133 30.144 0 61.867 6.389 90.432 17.568-4.768-14.379-6.347-28.747-6.347-43.115-145.952-6.4-149.12-89.429-149.12-92.629v-151.691c0-23.947 9.515-49.493 26.965-67.072 39.659-39.915 69.803-14.368 101.525-35.125h-331.541c38.080 20.757 63.467-3.2 101.525 35.125zM878.827 556.725c7.925 22.357 26.965 41.525 49.173 51.104 23.797-14.368 52.352-14.368 74.56 0 23.797-9.579 41.248-28.747 50.773-51.093-50.773-46.315-125.333-46.315-174.507 0zM966.080 634.976c-20.629 0-38.080 17.568-38.080 38.325s17.451 36.725 38.080 36.725c20.619 0 36.48-15.968 36.48-36.725s-15.861-38.325-36.48-38.325zM966.080 785.088c99.947 0 163.392-110.187 112.629-196.416-11.104 19.157-28.555 36.725-47.595 47.893 5.993 10.497 9.526 23.069 9.526 36.466 0 0.095 0 0.19-0.001 0.285v-0.015c0 41.525-33.323 75.051-74.56 75.051-41.248 0-74.56-33.525-74.56-75.051 0-0.083-0.001-0.181-0.001-0.279 0-13.389 3.529-25.954 9.708-36.815l-0.193 0.368c-20.619-11.179-36.48-28.747-49.173-47.904-49.173 86.229 12.693 196.416 114.219 196.416zM486.987 724.395c7.936 23.957 26.976 43.125 49.173 52.704 22.219-14.368 52.363-14.368 74.56 0 23.808-9.579 41.248-28.747 49.184-52.693-22.711-20.792-53.094-33.532-86.453-33.532s-63.742 12.74-86.55 33.62l0.097-0.087zM574.24 804.245c-20.619 0-38.080 15.968-38.080 36.736 0 20.757 17.461 38.325 38.080 38.325s36.48-17.568 36.48-38.325c0-20.768-15.861-36.736-36.48-36.736zM574.24 954.357c99.947 0 163.403-110.187 112.64-196.416-11.115 19.157-28.565 36.725-47.595 47.904 6.347 11.179 9.515 22.357 9.515 35.136 0 41.515-33.312 76.651-74.56 76.651s-74.56-35.136-74.56-76.651c0-12.779 3.179-23.957 9.515-35.136-20.619-11.179-36.48-28.747-49.173-47.904-49.163 86.219 12.704 196.405 114.229 196.405zM180.832 785.067c101.525 0 164.981-110.187 114.219-196.405-12.693 19.157-28.555 36.725-49.173 47.893 6.336 11.189 11.093 23.968 11.093 36.736 0 41.525-34.891 75.051-76.139 75.051-39.659 0-74.56-33.525-74.56-75.051 0-12.768 4.757-25.547 11.104-36.725-20.619-11.179-36.48-28.747-49.173-47.904-50.773 86.229 12.693 196.416 112.629 196.416zM144.352 673.291c0 20.757 17.44 36.725 36.48 36.725 20.619 0 38.080-15.968 38.080-36.725s-17.461-38.325-38.080-38.325c-19.040 0-36.48 17.568-36.48 38.325zM95.157 556.725c8.534 23.405 26.211 41.713 48.597 50.895l0.576 0.209c22.208-14.368 52.352-14.368 74.56 0 22.96-9.389 40.637-27.692 48.981-50.493l0.192-0.6c-49.173-46.315-123.733-46.315-172.907 0zM218.891 409.813c46.005 0 90.421-25.547 112.64-65.472 23.787-41.515 23.787-91.019 0-132.533-10.927 20.473-27.207 36.848-46.989 47.592l-0.606 0.301c5.986 10.493 9.515 23.058 9.515 36.447 0 0.102 0 0.203-0.001 0.305v-0.016c0 41.515-33.312 75.051-74.56 75.051s-74.56-33.536-74.56-75.051c0-0.077 0-0.168 0-0.26 0-13.397 3.533-25.968 9.719-36.834l-0.193 0.368c-19.040-11.179-36.491-27.147-47.595-47.904-50.773 87.819 12.693 198.005 112.64 198.005zM180.811 296.437c0 20.757 17.461 38.325 38.080 38.325 20.629 0 38.080-17.568 38.080-38.325s-17.451-36.725-38.080-36.725c-20.619 0-36.48 15.968-38.080 36.725zM131.637 179.861c9.525 23.957 26.976 43.115 49.173 52.693 23.808-14.368 52.363-14.368 76.16 0 22.208-9.579 39.659-28.736 49.173-52.693-49.173-44.704-125.333-44.704-174.507 0zM840.757 179.861c9.515 23.957 26.965 43.115 49.173 52.693 23.787-14.368 52.352-14.368 76.149 0 22.208-9.579 39.659-28.736 49.173-52.693-49.173-44.704-125.333-44.704-174.507 0zM928.011 259.712c-20.629 0-36.491 15.968-36.491 36.725s15.861 38.325 36.48 38.325c20.629 0 38.080-17.568 38.080-38.325s-17.451-36.725-38.080-36.725zM928.011 409.813c99.936 0 163.392-110.187 112.629-198.005-10.927 20.473-27.207 36.848-46.989 47.592l-0.606 0.301c5.986 10.493 9.515 23.058 9.515 36.447 0 0.102 0 0.203-0.001 0.305v-0.016c0 41.515-33.312 75.051-74.56 75.051s-74.56-33.536-74.56-75.051c0-0.077 0-0.168 0-0.26 0-13.397 3.533-25.968 9.719-36.834l-0.193 0.368c-19.040-11.179-36.491-27.147-47.595-47.904-23.787 41.515-23.787 91.019 0 132.533 23.787 39.925 66.624 65.472 112.64 65.472z" />
<glyph unicode="&#xe906;" glyph-name="ic-genetic-profile" horiz-adv-x="960" d="M1221.76 1090.72c47.67 0 86.315-38.644 86.315-86.315v0-863.157c0-0.003 0-0.007 0-0.011 0-47.67-38.644-86.315-86.315-86.315h-378.88l48.555-129.472h114.517c0.35 0.007 0.762 0.011 1.175 0.011 35.759 0 64.747-28.988 64.747-64.747s-28.988-64.747-64.747-64.747c-0.413 0-0.826 0.004-1.237 0.012l0.062-0.001h-690.517c-0.35-0.007-0.762-0.011-1.175-0.011-35.759 0-64.747 28.988-64.747 64.747s28.988 64.747 64.747 64.747c0.413 0 0.826-0.004 1.237-0.012l-0.062 0.001h114.517l48.555 129.483h-378.859c-0.003 0-0.007 0-0.011 0-47.67 0-86.315 38.644-86.315 86.315 0 0.004 0 0.008 0 0.011v-0.001 863.147c0 47.67 38.644 86.315 86.315 86.315 0.004 0 0.008 0 0.011 0h-0.001zM1005.973-117.707h-690.549c-11.918 0-21.579-9.661-21.579-21.579s9.661-21.579 21.579-21.579v0h690.528c11.918 0 21.579 9.661 21.579 21.579s-9.661 21.579-21.579 21.579v0zM796.8 54.933h-272.213l-48.533-129.483h369.312l-48.565 129.483zM1264.917 227.573h-1208.427v-86.315c0-0.003 0-0.007 0-0.011 0-23.835 19.322-43.157 43.157-43.157h1122.112c23.835 0 43.157 19.322 43.157 43.157 0 0.004 0 0.008 0 0.011v-0.001 86.315zM682.283 184.416v-43.157h-43.157v43.157h43.157zM1221.76 1047.563h-1122.112c-23.835 0-43.157-19.322-43.157-43.157v-733.685h1208.427v733.685c0 23.835-19.322 43.157-43.157 43.157v0zM185.963 961.248v-64.736h215.787v64.747h43.157v-77.013c0.001-0.2 0.001-0.437 0.001-0.674 0-69.504-28.271-132.406-73.942-177.832l-46.592-46.592 46.581-46.592c45.682-45.437 73.953-108.338 73.953-177.843 0-0.241 0-0.482-0.001-0.722v0.037-76.992h-43.157v64.747h-215.787v-64.747h-43.157v76.992c-0.001 0.203-0.001 0.444-0.001 0.685 0 69.505 28.271 132.406 73.942 177.832l46.592 46.603-46.581 46.581c-45.682 45.437-73.953 108.338-73.953 177.843 0 0.245 0 0.489 0.001 0.733v-0.038 76.981h43.157zM1113.856 400.192v-43.157h-561.056v43.157h561.067zM1178.603 486.507v-43.157h-625.803v43.157h625.803zM378.603 529.664h-169.493c-9.836-18.758-17.073-40.559-20.512-63.602l-0.139-1.134h210.795c-3.576 24.18-10.814 45.985-21.194 65.891l0.543-1.144zM1178.603 572.821v-43.157h-496.32v43.157h496.32zM639.125 572.821v-43.157h-43.157v43.157h43.157zM293.856 628.629l-46.592-46.592c-2.955-2.955-5.611-6.123-8.352-9.216h109.888c-2.741 3.093-5.397 6.261-8.352 9.216l-46.592 46.592zM703.861 961.248v-51.403l64.736-32.363 64.736 32.363v51.413h43.157v-51.413l69.835-34.912h59.637v-43.157h-43.157v-86.315c0.043-8.213-4.587-15.755-11.936-19.424l-74.379-37.077v-51.403h-43.157v51.413l-64.747 32.363-64.725-32.373v-51.403h-43.168v51.413l-69.835 34.912h-59.648v43.157h43.157v86.315c0 8.181 4.619 15.659 11.947 19.307l74.379 37.184v51.413h43.157zM348.8 745.461h-109.888c2.741-3.093 5.397-6.261 8.352-9.216l46.592-46.592 46.592 46.592c2.955 2.955 5.611 6.123 8.352 9.216zM854.912 872.395l-64.747-32.373v-81.227l64.747-32.373 64.747 32.373v81.227l-64.747 32.363zM682.283 872.395l-64.747-32.373v-81.227l64.747-32.373 64.736 32.373v81.227l-64.747 32.363zM399.243 853.344h-210.763c3.264-22.571 10.24-44.448 20.64-64.747h169.493c9.834 18.762 17.068 40.567 20.501 63.614l0.139 1.133zM1092.277 918.080v-43.157h-43.157v43.157h43.157zM1178.603 918.080v-43.157h-43.157v43.157h43.157z" />
<glyph unicode="&#xe907;" glyph-name="ic-lab-testing" horiz-adv-x="731" d="M302.299 960c-30.23-0.165-54.692-24.627-54.857-54.841v-0.016c0.165-30.23 24.627-54.692 54.841-54.857h0.016c30.23 0.165 54.692 24.627 54.857 54.841v0.016c-0.165 30.23-24.627 54.692-54.841 54.857h-0.016zM302.299 923.429c10.313 0 18.286-7.973 18.286-18.286s-7.973-18.286-18.286-18.286c-0.080-0.001-0.175-0.002-0.27-0.002-9.951 0-18.018 8.067-18.018 18.018 0 0.095 0.001 0.19 0.002 0.285v-0.014c0 10.313 7.973 18.286 18.286 18.286zM402.871 896c-25.17-0.178-45.525-20.542-45.69-45.699v-0.016c0-25.039 20.675-45.714 45.714-45.714 25.181 0.165 45.55 20.534 45.714 45.699v0.016c-0.165 25.181-20.534 45.55-45.699 45.714h-0.016zM402.871 859.429c5.266 0 9.143-3.901 9.143-9.143 0.003-0.081 0.004-0.177 0.004-0.272 0-4.901-3.973-8.875-8.875-8.875-0.096 0-0.191 0.002-0.286 0.005h0.014c-0.081-0.003-0.177-0.004-0.272-0.004-4.901 0-8.875 3.973-8.875 8.875 0 0.096 0.002 0.191 0.005 0.286v-0.014c0 5.266 3.901 9.143 9.143 9.143zM174.275 722.261c0.179-30.22 24.636-54.668 54.841-54.833h0.016v-196.291l-79.726-139.581c-1.198-1.426-2.186-3.080-2.885-4.879l-0.041-0.119-134.412-235.179c-0.011-0.011-0.068-0.132-0.124-0.252l-0.047-0.113c-35.791-66.121 13.507-155.014 89.259-155.014h512c75.752 0 125.050 88.893 89.234 155.014-0.103 0.234-0.16 0.354-0.218 0.474l0.048-0.108-217.064 379.782v65.219c0.156 0.898 0.246 1.932 0.246 2.987s-0.089 2.089-0.261 3.095l0.015-0.108v67.17c0.156 0.898 0.246 1.932 0.246 2.987s-0.089 2.089-0.261 3.095l0.015-0.108v51.956c30.23 0.165 54.692 24.627 54.857 54.841v0.016c-0.165 30.23-24.627 54.692-54.841 54.857h-255.992c-30.234-0.22-54.679-24.691-54.857-54.913v-0.017zM485.181 740.571c10.459 0 18.286-7.826 18.286-18.286 0-10.435-7.826-18.286-18.286-18.286h-15.214c-0.894 0.155-1.924 0.244-2.974 0.244s-2.080-0.089-3.082-0.259l0.108 0.015h-213.748c-0.861 0.144-1.853 0.226-2.865 0.226s-2.004-0.082-2.97-0.24l0.106 0.014h-15.36c-0.125-0.003-0.272-0.005-0.419-0.005-9.87 0-17.871 8.001-17.871 17.871 0 0.147 0.002 0.295 0.005 0.441v-0.022c0 10.459 7.826 18.286 18.286 18.286h256zM448.61 667.429v-201.143l2.292-9.192 26.234-45.666 20.919-36.571 20.894-36.571h-323.584l67.974 118.93c1.503 2.597 2.389 5.714 2.389 9.037 0 0.011 0 0.023 0 0.034v-0.002 201.143h182.857zM174.47 301.714h365.373l130.414-228.181c22.016-40.765-11.288-100.937-57.076-100.937h-512.049c-45.812 0-79.092 60.172-57.051 100.937l130.389 228.157z" />
<glyph unicode="&#xe908;" glyph-name="ic-user-menu" horiz-adv-x="1229" d="M409.6 427.52c156.754 0 306.381-80.814 400.507-216.269 5.816-8.438 9.093-18.76 9.093-29.491v-196.608c0-27.116-20.398-49.152-45.507-49.152h-728.228c-25.068 0-45.466 22.036-45.466 49.152v196.608c0 10.65 3.195 21.053 9.093 29.491 94.044 135.455 243.753 216.269 400.507 216.269zM1115.013 199.946c50.265 0 91.013-40.748 91.013-91.013s-40.748-91.013-91.013-91.013v0c-50.265 0-91.013 40.748-91.013 91.013s40.748 91.013 91.013 91.013v0zM409.6 329.216c-123.331 0-241.295-61.153-318.587-164.372v-130.54h637.174v130.54c-77.414 103.219-195.379 164.372-318.587 164.372zM1115.013 518.533c50.265 0 91.013-40.748 91.013-91.013s-40.748-91.013-91.013-91.013v0c-50.265 0-91.013 40.748-91.013 91.013s40.748 91.013 91.013 91.013v0zM409.6 960c135.455 0 245.76-110.305 245.76-245.76s-110.305-245.76-245.76-245.76-245.76 110.305-245.76 245.76 110.305 245.76 245.76 245.76zM409.6 861.696c-81.4-0.093-147.363-66.056-147.456-147.447v-0.009c0-81.306 66.15-147.456 147.456-147.456s147.456 66.15 147.456 147.456-66.15 147.456-147.456 147.456zM1115.013 837.12c50.265 0 91.013-40.748 91.013-91.013s-40.748-91.013-91.013-91.013v0c-50.265 0-91.013 40.748-91.013 91.013s40.748 91.013 91.013 91.013v0z" />
<glyph unicode="&#xe909;" glyph-name="pdf" horiz-adv-x="796" d="M698.216 824.377c54.234 0 98.228-45.852 98.228-102.4v-683.577c0-56.548-43.994-102.4-98.266-102.4h-469.295c-54.234 0-98.266 45.89-98.266 102.438v683.539c0 56.548 43.994 102.4 98.228 102.4zM698.216 796.615h-469.371c-39.519 0-71.642-33.489-71.642-74.638v-683.577c0-41.188 32.123-74.676 71.642-74.676h469.295c39.519 0 71.642 33.489 71.642 74.714v683.501c0 41.15-32.123 74.638-71.642 74.638zM567.524 960c52.186 0 94.853-42.401 98.076-95.953l0.19-6.447-0.038-33.185h-26.624v33.147c0 39.215-29.127 71.452-65.991 74.449l-5.613 0.228h-469.257c-37.623 0-68.57-30.379-71.415-68.836l-0.228-5.841v-683.539c0-39.215 29.165-71.452 66.067-74.449l5.575-0.19h32.351v-27.762h-32.351c-52.186 0-94.853 42.401-98.076 95.953l-0.19 6.447v683.577c0 54.348 40.695 98.873 92.046 102.21l6.22 0.19h469.295zM452.115 465.18c30.455 0 50.176-5.689 65.612-17.825 16.649-12.895 27.117-33.451 27.117-62.957 0-31.934-11.188-54.007-26.624-67.622-16.877-14.639-42.553-21.58-73.956-21.58-18.773 0-32.085 1.252-41.112 2.503v164.030c13.312 2.238 30.682 3.451 48.962 3.451zM664.235 463.929v-30.948h-61.516v-38.153h57.496v-30.72h-57.496v-67.167h-36.409v166.988h97.925zM316.34 465.18c22.338 0 38.267-4.437 48.924-13.388 10.24-8.42 17.143-22.3 17.143-38.647s-5.234-30.227-14.753-39.633c-12.326-12.136-30.644-17.598-52.034-17.598-4.779 0-9.064 0.228-12.364 0.759v-59.733h-35.878v164.788c13.353 2.22 28.739 3.488 44.421 3.488 1.61 0 3.217-0.013 4.821-0.040l-0.241 0.003zM455.908 436.205c-8.078 0-13.274-0.759-16.384-1.517v-109.227c3.072-0.759 8.078-0.759 12.591-0.759 32.806-0.265 54.234 18.584 54.234 58.482 0.228 34.664-19.266 53.020-50.441 53.020zM318.236 436.698c-7.396 0-12.364-0.759-14.981-1.479v-49.304c3.11-0.759 6.903-0.986 12.136-0.986 19.228 0 31.099 10.164 31.099 27.269 0 15.322-10.202 24.5-28.255 24.5z" />
<glyph unicode="&#xe90b;" glyph-name="1" d="M512 960c23.872 0 43.52-17.92 46.208-41.088l0.32-5.44v-418.944h418.944c0.179 0.002 0.391 0.004 0.603 0.004 25.697 0 46.528-20.831 46.528-46.528 0-23.993-18.161-43.744-41.486-46.258l-0.205-0.018-5.44-0.256h-418.944v-418.944c0.002-0.179 0.004-0.391 0.004-0.603 0-25.697-20.831-46.528-46.528-46.528-23.993 0-43.744 18.161-46.258 41.486l-0.018 0.205-0.256 5.44v418.944h-419.008c-0.179-0.002-0.391-0.004-0.603-0.004-25.697 0-46.528 20.831-46.528 46.528 0 23.993 18.161 43.744 41.486 46.258l0.205 0.018 5.44 0.256h418.88v418.944c0.128 25.664 20.992 46.528 46.656 46.528z" />
<glyph unicode="&#xe90d;" glyph-name="ic-close" d="M11.008 905.131l43.861 43.776c6.821 6.798 16.232 11.001 26.624 11.001s19.803-4.203 26.625-11.002l403.199-403.199c134.4 134.4 270.165 268.8 404.48 403.2 6.825 6.823 16.253 11.044 26.667 11.044s19.842-4.22 26.667-11.044l43.861-43.861c6.798-6.821 11.001-16.232 11.001-26.624s-4.203-19.803-11.002-26.625l0.001 0.001c-134.4-134.4-270.080-268.8-404.48-403.2l404.48-404.48c6.823-6.825 11.044-16.253 11.044-26.667s-4.22-19.842-11.044-26.667l-43.861-43.861c-6.821-6.798-16.232-11.001-26.624-11.001s-19.803 4.203-26.625 11.002l-404.479 404.479c-134.485-134.4-268.8-270.080-403.285-404.48-6.821-6.798-16.232-11.001-26.624-11.001s-19.803 4.203-26.625 11.002l-43.86 43.86c-6.798 6.821-11.001 16.232-11.001 26.624s4.203 19.803 11.002 26.625l-0.001-0.001c134.4 134.4 268.8 270.165 403.2 404.48l-403.2 403.456c-6.798 6.821-11.001 16.232-11.001 26.624s4.203 19.803 11.002 26.625l-0.001-0.001z" />
<glyph unicode="&#xe90e;" glyph-name="ic-filter" d="M598.642 494.649l299.292 382.862h-771.868l302.421-382.862c6.315-9.899 9.5-19.854 9.5-29.753v-343.211l148.025-75.947v422.457c0 9.899 6.315 19.854 12.629 26.453zM1014.5 890.709l-346.567-439.012v-471.95c0-32.996-31.46-52.793-56.661-39.595l-230.002 115.484c-12.629 6.599-25.202 19.797-25.202 39.595v356.466l-346.567 439.012c-22.073 26.396-3.243 69.291 31.46 69.291h942.080c34.645 0 53.532-39.595 31.46-69.291z" />
<glyph unicode="&#xe90f;" glyph-name="ic-search" d="M748.311 302.173c52.876 69.027 85.504 154.717 85.504 248.227 0 225.932-185.67 409.6-414.068 409.6-228.445 0-414.161-183.668-414.161-409.6s185.67-409.6 414.115-409.6c85.504 0 164.305 25.6 230.679 70.144l257.676-254.929c13.498-13.359 30.394-20.015 47.244-20.015 16.896 0 34.909 6.656 47.29 20.015 25.879 25.6 25.879 67.956 0 94.627l-254.324 251.532zM140.66 550.4c0 151.366 124.881 276.015 279.087 276.015 154.159 0 279.040-124.649 279.040-276.015 0-152.483-124.881-276.015-279.040-276.015-154.205 0-279.087 123.532-279.087 276.015z" />
<glyph unicode="&#xe910;" glyph-name="ic-view-thumbnail-unselected" d="M387.635 374.835h-336.435c-28.277 0-51.2-22.923-51.2-51.2v-336.435c0-28.277 22.923-51.2 51.2-51.2h336.435c28.277 0 51.2 22.923 51.2 51.2v336.435c0 28.277-22.923 51.2-51.2 51.2zM972.8 374.835h-336.435c-28.277 0-51.2-22.923-51.2-51.2v-336.435c0-28.277 22.923-51.2 51.2-51.2h336.435c28.277 0 51.2 22.923 51.2 51.2v336.435c0 28.277-22.923 51.2-51.2 51.2zM387.635 960h-336.435c-28.277 0-51.2-22.923-51.2-51.2v-336.435c0-28.277 22.923-51.2 51.2-51.2h336.435c28.277 0 51.2 22.923 51.2 51.2v336.435c0 28.277-22.923 51.2-51.2 51.2zM972.8 960h-336.435c-28.277 0-51.2-22.923-51.2-51.2v-336.435c0-28.277 22.923-51.2 51.2-51.2h336.435c28.277 0 51.2 22.923 51.2 51.2v336.435c0 28.277-22.923 51.2-51.2 51.2z" />
<glyph unicode="&#xe912;" glyph-name="ic-user" horiz-adv-x="853" d="M409.6 427.52c156.729 0 306.404-80.782 400.498-216.292 5.803-8.42 9.102-18.773 9.102-29.468v-196.608c0-27.136-20.366-49.152-45.511-49.152h-728.178c-25.145 0-45.511 22.016-45.511 49.152v196.608c0 10.638 3.186 21.049 9.102 29.468 94.037 135.509 243.769 216.292 400.498 216.292zM409.6 329.216c-123.335 0-241.323-61.156-318.578-164.409v-130.503h637.156v130.56c-77.369 103.196-195.356 164.352-318.578 164.352zM409.6 960c135.651-0.194 245.566-110.109 245.76-245.741v-0.019c-0.194-135.651-110.109-245.566-245.741-245.76h-0.019c-135.651 0.194-245.566 110.109-245.76 245.741v0.019c0.194 135.651 110.109 245.566 245.741 245.76h0.019zM409.6 861.696c-81.399-0.097-147.359-66.057-147.456-147.447v-0.009c0.097-81.399 66.057-147.359 147.447-147.456h0.009c81.399 0.097 147.359 66.057 147.456 147.447v0.009c-0.097 81.399-66.057 147.359-147.447 147.456h-0.009z" />
<glyph unicode="&#xe913;" glyph-name="ic-download" horiz-adv-x="768" d="M669.645-64c43.418 0 78.643 35.328 78.643 78.694v691.354c0 21.709-12.442 51.763-27.802 67.174l-158.976 158.925c-15.36 15.36-45.568 27.853-67.072 27.853h-415.693c-43.52 0-78.746-35.226-78.746-78.643v-866.714c0-43.418 35.072-78.643 78.643-78.643h591.053zM669.645 54.272c0 0 0 0 0-0.001 0-21.758-17.58-39.41-39.31-39.526h-512.369c-21.651 0.087-39.169 17.658-39.169 39.321 0 0.072 0 0.144 0.001 0.216v-0.011l0.666 787.456c0 21.862 17.766 39.526 39.629 39.526l333.619 0.051c21.862 0 39.578-17.613 39.578-39.322v-59.187c0-43.52 35.226-78.797 78.746-78.797h60.006c21.862 0 39.526-17.715 39.526-39.526l-0.973-610.15zM519.117 382.054c7.202-7.238 11.654-17.218 11.654-28.239 0-10.892-4.349-20.768-11.406-27.986l0.007 0.007-117.146-120.422c-7.111-7.287-17.030-11.807-28.005-11.807-10.899 0-20.757 4.457-27.85 11.649l-0.004 0.004-119.142 120.371c-7.125 7.225-11.526 17.153-11.526 28.109s4.4 20.884 11.53 28.113l-0.005-0.005c7.097 7.195 16.955 11.651 27.853 11.651s20.755-4.457 27.848-11.647l0.004-0.004 51.814-52.48v178.944c0 21.965 17.664 39.782 39.424 39.782s39.373-17.818 39.373-39.782v-178.483l49.869 51.968c7.109 7.271 17.018 11.78 27.979 11.78 10.835 0 20.641-4.405 27.725-11.523l0.001-0.002z" />
<glyph unicode="&#xe914;" glyph-name="ic-quick-view" horiz-adv-x="1682" d="M832 960c309.76 0 601.893-173.056 801.938-473.161l26.551-38.839-26.551-38.839c-200.046-300.105-492.178-473.161-801.938-473.161s-601.893 173.056-801.938 473.161l-26.551 38.839 26.551 38.839c200.046 300.105 492.178 473.161 801.938 473.161zM832 818.761c-247.808 0-485.010-134.217-656.75-370.761 171.739-236.544 408.869-370.761 656.75-370.761 247.808 0 485.010 134.217 656.75 370.761-171.739 236.544-408.869 370.761-656.75 370.761zM832 730.478c155.794 0 283.209-127.122 283.209-282.478s-127.415-282.478-283.209-282.478-283.209 127.122-283.209 282.478 127.415 282.478 283.209 282.478z" />
<glyph unicode="&#xe916;" glyph-name="ic-view-list-selected" d="M972.8 82.278h-921.6c-28.277 0-51.2-22.923-51.2-51.2v-43.878c0-28.277 22.923-51.2 51.2-51.2h921.6c28.277 0 51.2 22.923 51.2 51.2v43.878c0 28.277-22.923 51.2-51.2 51.2zM972.8 374.835h-921.6c-28.277 0-51.2-22.923-51.2-51.2v-43.878c0-28.277 22.923-51.2 51.2-51.2h921.6c28.277 0 51.2 22.923 51.2 51.2v43.878c0 28.277-22.923 51.2-51.2 51.2zM972.8 667.443h-921.6c-28.277 0-51.2-22.923-51.2-51.2v-43.878c0-28.277 22.923-51.2 51.2-51.2h921.6c28.277 0 51.2 22.923 51.2 51.2v43.878c0 28.277-22.923 51.2-51.2 51.2zM972.8 960h-921.6c-28.277 0-51.2-22.923-51.2-51.2v-43.878c0-28.277 22.923-51.2 51.2-51.2h921.6c28.277 0 51.2 22.923 51.2 51.2v43.878c0 28.277-22.923 51.2-51.2 51.2z" />
<glyph unicode="&#xe917;" glyph-name="ic-view-thumbnail-unselected1" d="M387.635 374.835h-336.435c-28.277 0-51.2-22.923-51.2-51.2v-336.435c0-28.277 22.923-51.2 51.2-51.2h336.435c28.277 0 51.2 22.923 51.2 51.2v336.435c0 28.277-22.923 51.2-51.2 51.2zM972.8 374.835h-336.435c-28.277 0-51.2-22.923-51.2-51.2v-336.435c0-28.277 22.923-51.2 51.2-51.2h336.435c28.277 0 51.2 22.923 51.2 51.2v336.435c0 28.277-22.923 51.2-51.2 51.2zM387.635 960h-336.435c-28.277 0-51.2-22.923-51.2-51.2v-336.435c0-28.277 22.923-51.2 51.2-51.2h336.435c28.277 0 51.2 22.923 51.2 51.2v336.435c0 28.277-22.923 51.2-51.2 51.2zM972.8 960h-336.435c-28.277 0-51.2-22.923-51.2-51.2v-336.435c0-28.277 22.923-51.2 51.2-51.2h336.435c28.277 0 51.2 22.923 51.2 51.2v336.435c0 28.277-22.923 51.2-51.2 51.2z" />
<glyph unicode="&#xe918;" glyph-name="ic-filter1" d="M598.642 494.649l299.292 382.862h-771.868l302.421-382.862c6.315-9.899 9.5-19.854 9.5-29.753v-343.211l148.025-75.947v422.457c0 9.899 6.315 19.854 12.629 26.453zM1014.5 890.709l-346.567-439.012v-471.95c0-32.996-31.46-52.793-56.661-39.595l-230.002 115.484c-12.629 6.599-25.202 19.797-25.202 39.595v356.466l-346.567 439.012c-22.073 26.396-3.243 69.291 31.46 69.291h942.080c34.645 0 53.532-39.595 31.46-69.291z" />
<glyph unicode="&#xe919;" glyph-name="message" d="M793.805 960c103.782 0 189.952-83.251 194.611-185.958l0.205-8.858v-412.826c0-103.782-83.251-189.901-185.958-194.56l-8.858-0.256h-501.299l-257.178-221.542v829.184c0.082 104.428 82.251 189.639 185.463 194.594l0.445 0.017 8.96 0.205h563.61zM793.805 882.278h-563.61c-61.696 0-113.152-49.562-116.838-110.080l-0.256-7.014v-656.794l146.944 125.901 6.707 2.458h527.053c60.774 0 111.718 48.64 115.405 108.646l0.205 6.963v412.826c0 63.488-52.787 117.094-115.61 117.094zM511.283 639.334c-42.342 0-77.67-35.379-77.67-77.67v0.008c0-0.054 0-0.108 0-0.162 0-42.783 34.683-77.466 77.466-77.466 0.072 0 0.144 0 0.205 0 43.776 0 77.67 33.894 77.67 77.67 0 42.752-34.406 77.67-77.67 77.67zM278.477 639.334c-42.342 0-77.67-35.379-77.67-77.67v0.008c0-0.054 0-0.108 0-0.162 0-42.783 34.683-77.466 77.466-77.466 0.072 0 0.144 0 0.205 0 43.776 0 77.67 33.894 77.67 77.67 0 42.752-34.355 77.67-77.67 77.67zM744.038 639.386c-42.291 0-77.67-35.379-77.67-77.67v0.011c0-0.072 0-0.144 0-0.216 0-42.783 34.683-77.466 77.466-77.466 0.072 0 0.144 0 0.205 0 43.776 0 77.67 33.894 77.67 77.67 0 42.752-34.355 77.67-77.67 77.67z" />
<glyph unicode="&#xe91a;" glyph-name="settings" d="M531.2 960c30.515 0 58.061-18.022 70.502-45.466l2.458-6.042 35.123-98.867 0.358-0.512 0.512-0.358 36.454-15.053 0.614-0.102 0.512 0.154 94.72 45.056c9.729 4.731 21.165 7.497 33.247 7.497 19.111 0 36.606-6.921 50.115-18.393l-0.111 0.092 4.762-4.454 27.136-27.085c21.606-21.606 28.314-53.862 17.664-82.022l-2.56-5.99-44.954-94.669-0.154-0.614 0.102-0.614 15.053-36.506 0.358-0.461 0.512-0.358 98.816-35.123c28.826-10.24 48.742-36.454 51.251-66.458l0.256-6.502v-38.4c0-30.464-18.022-58.061-45.466-70.502l-6.042-2.406-98.816-35.174-0.512-0.307-0.358-0.512-15.053-36.454-0.102-0.614 0.154-0.614 45.005-94.72c13.107-27.443 8.704-60.109-10.752-83.149l-4.403-4.762-27.136-27.136c-14.010-14.013-33.366-22.68-54.746-22.68-9.801 0-19.176 1.821-27.806 5.144l0.53-0.179-5.99 2.56-94.72 45.056-0.563 0.102-0.614-0.102-36.454-15.104-0.512-0.358-0.358-0.512-35.072-98.816c-10.24-28.774-36.454-48.691-66.509-51.2l-6.451-0.307h-38.4c-31.155 0.060-57.997 18.465-70.303 44.986l-0.2 0.479-2.406 6.042-35.174 98.816-0.358 0.512-0.512 0.41-36.454 15.002-0.614 0.102-0.614-0.102-94.669-45.056c-9.718-4.706-21.136-7.457-33.197-7.457-19.080 0-36.551 6.884-50.067 18.304l0.115-0.095-4.762 4.403-27.136 27.136c-14.035 14.014-22.717 33.384-22.717 54.783 0 9.787 1.816 19.149 5.13 27.769l-0.179-0.53 2.56 5.99 45.056 94.72 0.102 0.563-0.154 0.666-15.002 36.352-0.358 0.512-0.563 0.41-98.816 35.123c-28.774 10.24-48.691 36.454-51.2 66.458l-0.307 6.502v38.4c0 30.464 18.022 58.061 45.414 70.502l6.042 2.406 98.918 35.174 0.512 0.358 0.358 0.512 15.002 36.454 0.102 0.614-0.102 0.563-45.056 94.72c-4.701 9.709-7.448 21.117-7.448 33.166 0 19.096 6.901 36.581 18.345 50.096l-0.094-0.113 4.403 4.813 27.136 27.136c14.015 14 33.369 22.657 54.745 22.657 9.782 0 19.14-1.813 27.757-5.121l-0.53 0.179 5.99-2.56 94.72-45.056 0.614-0.102 0.614 0.102 36.352 15.002 0.614 0.41 0.358 0.512 35.123 98.816c10.189 28.877 36.403 48.794 66.458 51.354l6.451 0.205h38.4zM531.2 884.173h-38.4l-0.87-0.307-0.563-0.768-35.174-98.816c-6.721-18.546-19.755-33.439-36.45-42.395l-0.414-0.203-6.605-3.072-36.403-15.002c-17.92-7.373-37.99-7.731-56.064-1.126l-6.656 2.816-94.72 44.954-0.87 0.154-0.819-0.41-27.136-27.136-0.461-0.87 0.154-0.922 45.005-94.72c8.346-17.459 9.728-37.478 4.096-55.91l-2.458-6.81-14.95-36.352c-7.599-18.075-21.287-32.343-38.442-40.503l-0.47-0.201-6.758-2.765-98.97-35.226-0.666-0.512-0.307-0.87v-38.4l0.307-0.87 0.717-0.563 98.918-35.174c18.33-6.554 33.485-19.763 42.496-36.864l3.123-6.554 15.002-36.403c7.424-17.971 7.731-38.042 1.126-56.115l-2.816-6.656-44.954-94.669-0.154-0.922 0.41-0.768 27.187-27.187 0.819-0.41 0.922 0.102 94.72 45.056c9.712 4.668 21.116 7.395 33.156 7.395 8.006 0 15.73-1.206 23-3.445l-0.553 0.147 7.168-2.56 36.352-14.95c17.92-7.373 32.461-21.35 40.653-38.912l2.765-6.656 35.174-98.97 0.512-0.717 0.922-0.307h38.4l0.87 0.307 0.563 0.717 35.174 98.918c6.554 18.381 19.814 33.536 36.864 42.496l6.605 3.123 36.352 15.002c17.92 7.424 38.042 7.782 56.064 1.178l6.656-2.816 94.72-45.056 0.922-0.051 0.819 0.358 27.136 27.136 0.41 0.87-0.102 0.87-45.056 94.72c-4.707 9.718-7.458 21.137-7.458 33.198 0 8.123 1.248 15.954 3.562 23.313l-0.149-0.55 2.458 6.81 14.95 36.352c7.424 17.92 21.402 32.461 38.912 40.653l6.707 2.765 98.918 35.174 0.717 0.563 0.307 0.922v38.4l-0.307 0.87-0.717 0.512-98.867 35.174c-18.533 6.744-33.409 19.794-42.344 36.499l-0.203 0.416-3.072 6.605-15.053 36.352c-3.687 8.715-5.83 18.849-5.83 29.483 0 9.54 1.724 18.677 4.879 27.116l-0.175-0.535 2.765 6.656 45.056 94.72 0.102 0.922-0.461 0.87-27.136 27.136-0.768 0.41-0.87-0.102-94.72-45.056c-17.459-8.294-37.478-9.728-55.91-4.096l-6.81 2.458-36.352 15.002c-18.070 7.608-32.335 21.293-40.503 38.442l-0.201 0.47-2.765 6.707-35.174 98.816c-0.22 0.653-0.822 1.117-1.535 1.126h-0.001zM512 643.942c108.181-0.088 195.855-87.762 195.942-195.934v-0.008c-0.088-108.181-87.762-195.855-195.934-195.942h-0.008c-108.181 0.088-195.855 87.762-195.942 195.934v0.008c0.088 108.181 87.762 195.855 195.934 195.942h0.008zM512 568.115c-66.314-0.058-120.057-53.801-120.115-120.11v-0.006c0.058-66.314 53.801-120.057 120.11-120.115h0.006c66.314 0.058 120.057 53.801 120.115 120.11v0.006c-0.058 66.314-53.801 120.057-120.11 120.115h-0.006z" />
<glyph unicode="&#xe91d;" glyph-name="ic-doc" horiz-adv-x="931" d="M930.351 686.732c-0.875 10.227-5.747 19.17-13.027 25.37l-0.053 0.044-279.273 236.311c-3.893 3.181-8.41 5.795-13.311 7.62l-0.327 0.107c-4.803 1.692-10.374 2.882-16.153 3.337l-0.231 0.015c-1.024 0-1.862 0.465-2.886 0.465h-465.455c-77.079-0.093-139.543-52.922-139.636-118.132v-787.735c0.093-65.164 62.557-118.039 139.636-118.132h651.636c77.079 0.093 139.543 52.922 139.636 118.132v630.179c0 0.838-0.465 1.583-0.559 2.42zM651.636 825.53l120.367-101.841h-120.367v101.841zM837.818 54.132c0-21.737-20.852-39.331-46.545-39.377h-651.636c-25.693 0-46.545 17.687-46.545 39.377v787.735c0 21.737 20.852 39.331 46.545 39.377h418.909v-196.934c0-21.737 20.852-39.377 46.545-39.377h232.727v-590.801zM232.727 526.755h465.455c25.693 0 46.545-17.641 46.545-39.377s-20.852-39.377-46.545-39.377h-465.455c-25.693 0-46.545 17.641-46.545 39.377s20.852 39.377 46.545 39.377zM744.727 172.311c0-21.737-20.852-39.377-46.545-39.377h-465.455c-25.693 0-46.545 17.641-46.545 39.377s20.852 39.377 46.545 39.377h465.455c25.693 0 46.545-17.641 46.545-39.377zM744.727 329.868c0-21.783-20.852-39.424-46.545-39.424h-465.455c-25.693 0-46.545 17.687-46.545 39.424s20.852 39.377 46.545 39.377h465.455c25.693 0 46.545-17.687 46.545-39.377z" />
<glyph unicode="&#xe91e;" glyph-name="ic-info" horiz-adv-x="979" d="M979.478 745.316c0 106.257-86.125 192.397-192.376 192.423h-594.769c-106.234-0.051-192.334-86.182-192.334-192.423v0-594.632c0-106.257 86.125-192.397 192.376-192.423h594.769c106.234 0.051 192.334 86.182 192.334 192.423v0 594.632zM890.435 150.684c0-0.013 0-0.029 0-0.045 0-57.070-46.265-103.335-103.335-103.335h-594.766c-57.051 0.025-103.29 46.28-103.29 103.335 0 0.016 0 0.031 0 0.047v-0.002 594.632c0 0.013 0 0.029 0 0.045 0 57.070 46.265 103.335 103.335 103.335h594.766c57.051-0.025 103.29-46.28 103.29-103.335 0-0.016 0-0.031 0-0.047v0.002-594.632zM626.065 180.87c0-24.589-19.933-44.522-44.522-44.522v0h-178.087c-24.589 0-44.522 19.933-44.522 44.522s19.933 44.522 44.522 44.522v0h41.761v267.13h-41.761c-24.589 0-44.522 19.933-44.522 44.522s19.933 44.522 44.522 44.522v0h130.805v-356.174h47.327c24.589 0 44.522-19.933 44.522-44.522v0zM422.957 690.109c0 36.883 29.9 66.783 66.783 66.783s66.783-29.9 66.783-66.783v0c0-36.883-29.9-66.783-66.783-66.783s-66.783 29.9-66.783 66.783v0z" />
<glyph unicode="&#xe91f;" glyph-name="unfilled" horiz-adv-x="745" d="M669.51-64c-8.903 0.025-17.108 2.994-23.697 7.984l0.099-0.072-291.421 218.577-291.514-218.624c-5.566-4.215-12.435-6.994-19.91-7.669l-0.151-0.011c-1.102-0.11-2.383-0.173-3.677-0.173-21.67 0-39.238 17.567-39.238 39.238 0 0.061 0 0.121 0 0.182v-0.009 866.444c0 0.042 0 0.091 0 0.14 0 65.166 52.827 117.993 117.993 117.993 0.082 0 0.164 0 0.246 0h472.516c0.042 0 0.091 0 0.14 0 65.166 0 117.993-52.827 117.993-117.993 0-0.049 0-0.098 0-0.147v0.008-866.444c0-21.757-17.624-39.398-39.375-39.424h-0.003zM354.49 251.113c8.471 0 16.756-2.793 23.599-7.913l252.044-188.975v787.596c0 21.748-17.63 39.377-39.377 39.377v0h-472.529c-21.757 0-39.398-17.624-39.424-39.375v-787.599l252.090 189.068c6.475 4.911 14.669 7.866 23.552 7.866 0.033 0 0.065 0 0.098 0h-0.005z" />
<glyph unicode="&#xe920;" glyph-name="ic-filter2" horiz-adv-x="1229" d="M959.078 738.97c9.882 13.158 19.763 29.696 23.040 49.408h204.39c19.763 0 32.922 13.21 32.922 32.973s-13.158 32.973-32.922 32.973h-204.339c-6.656 29.696-26.368 59.341-52.736 79.104-22.319 16.574-50.412 26.532-80.831 26.532-45.199 0-85.263-21.985-110.082-55.845l-0.267-0.382c-9.882-13.158-16.486-29.645-23.040-49.408h-682.24c-19.814 0-32.973-13.21-32.973-32.973s13.158-32.973 32.973-32.973h682.189c6.656-29.645 26.368-59.29 52.736-79.053 59.392-46.182 148.326-32.973 191.181 29.645zM807.475 762.010c-16.486 9.933-26.368 26.368-29.696 46.182-3.277 19.763 0 36.25 13.21 52.736 23.040 32.922 69.222 39.526 98.867 16.435 16.486-9.882 26.368-26.368 29.696-46.080v-9.933c0-16.486-3.328-29.696-13.21-42.854-23.040-32.922-69.222-39.526-98.867-16.486zM471.296 363.264c9.882 13.158 19.763 29.645 23.040 49.408h692.173c19.763 0 32.922 13.21 32.922 32.973s-13.158 32.973-32.922 32.973h-692.122c-6.656 29.645-26.368 59.29-52.736 79.053-22.324 16.585-50.426 26.549-80.856 26.549-45.185 0-85.238-21.971-110.058-55.813l-0.267-0.382c-9.882-13.158-16.486-29.696-23.040-49.408h-194.458c-19.814 0-32.973-13.21-32.973-32.973s13.158-32.973 32.973-32.973h194.458c6.554-29.696 26.368-59.341 52.736-79.104 59.29-42.854 144.998-29.696 191.13 29.696zM319.693 389.632c-16.486 9.882-26.368 26.368-29.696 46.080-3.277 19.814 0 36.301 13.21 52.736 23.040 32.973 69.222 39.578 98.867 16.538 16.486-9.933 26.368-26.368 29.696-46.182v-9.882c0-16.486-3.328-29.696-13.21-42.854-23.040-32.922-69.222-39.526-98.867-16.435zM830.515-9.216c9.933 13.21 19.814 29.696 23.091 49.459h332.902c19.763 0 32.922 13.21 32.922 32.973s-13.158 32.973-32.922 32.973h-332.902c-6.605 29.645-26.368 59.29-52.736 79.104-29.696 23.040-65.894 29.645-102.144 26.368-36.25-6.656-69.222-26.368-88.986-56.064-9.882-16.486-16.486-29.696-23.091-49.408h-553.677c-19.814 0-32.973-13.21-32.973-32.973s13.158-32.973 32.973-32.973h556.954c6.656-29.696 26.368-59.29 52.736-79.104 59.341-42.803 145.050-29.645 187.904 29.696zM678.963 13.875c-15.47 11.892-26.284 29.177-29.632 49l-0.064 0.46v13.158c0 13.21 6.605 23.040 13.21 32.973 9.882 16.486 26.368 26.368 46.080 29.696 19.814 3.277 36.301-3.328 52.736-13.21 16.538-9.882 26.419-26.368 29.696-46.131v-9.882c0-16.486-3.277-29.696-13.158-42.854-23.091-29.696-65.946-36.25-98.918-13.21z" />
<glyph unicode="&#xe921;" glyph-name="more" d="M512 192c56.554 0 102.4-45.846 102.4-102.4s-45.846-102.4-102.4-102.4v0c-56.554 0-102.4 45.846-102.4 102.4s45.846 102.4 102.4 102.4v0zM512 550.4c56.554 0 102.4-45.846 102.4-102.4s-45.846-102.4-102.4-102.4v0c-56.554 0-102.4 45.846-102.4 102.4s45.846 102.4 102.4 102.4v0zM512 908.8c56.554 0 102.4-45.846 102.4-102.4s-45.846-102.4-102.4-102.4v0c-56.554 0-102.4 45.846-102.4 102.4s45.846 102.4 102.4 102.4v0z" />
<glyph unicode="&#xe924;" glyph-name="delete" horiz-adv-x="1092" d="M819.2 960v-204.8h273.067v-102.4h-163.84v-716.8h-764.587v716.8h-163.84v102.4h273.067v204.8h546.133zM819.2 652.8h-546.133v-614.4h546.133v614.4zM382.293 140.8h109.227v409.6h-109.227v-409.6zM600.747 140.8h109.227v409.6h-109.227v-409.6zM382.293 755.2h327.68v102.4h-327.68v-102.4z" />
<glyph unicode="&#xe925;" glyph-name="chevron1" horiz-adv-x="1058" d="M22.289 223.334c-20.48 26.692-17.749 64.375 6.042 87.825l6.281 5.461 514.833 394.172 508.894-400.043c15.521-12.278 25.391-31.112 25.391-52.251 0-15.597-5.373-29.938-14.368-41.275l0.105 0.137c-20.821-26.419-58.027-33.075-87.927-15.019l-5.53 3.891-427.622 336.179-432.811-331.366c-24.781-18.978-59.051-17.988-83.456 2.185l-5.461 5.018z" />
<glyph unicode="&#xe926;" glyph-name="chevron-left" d="M-11.844 679.663c-20.48-26.692-17.749-64.375 6.042-87.825l6.281-5.461 514.833-394.172 508.894 400.043c15.521 12.278 25.391 31.112 25.391 52.251 0 15.597-5.373 29.938-14.368 41.275l0.105-0.137c-20.821 26.419-58.027 33.075-87.927 15.019l-5.53-3.891-427.622-336.179-432.811 331.366c-24.781 18.978-59.051 17.988-83.456-2.185l-5.461-5.018z" />
<glyph unicode="&#xe927;" glyph-name="edit" d="M570.24 920.256l-420.032-0.32-10.496-1.088c-79.68-10.56-139.712-77.248-139.712-157.952v-662.784l0.384-10.624 1.088-10.56c10.688-79.744 78.528-140.928 159.36-140.928l673.6 0.384 10.432 1.088 0.88 0.106c78.429 11.47 138.673 78.943 138.832 160.534v407.936h-100.672l-0.064-409.024-0.256-6.272-1.152-6.784c-5.952-26.624-30.4-47.424-58.56-47.424l-670.336 0.448-6.592 1.088c-25.984 6.144-46.272 31.232-46.272 60.032v662.784l0.32 7.36 1.28 7.040 0.095 0.416c6.825 25.35 29.973 44.008 57.478 44.008 0.347 0 0.693-0.003 0.986-0.008h409.408v100.608zM976.704 929.6l8.32-7.552 7.936-8.704c20.096-23.872 31.040-53.76 31.040-85.44 0-27.072-8.128-53.12-23.68-75.712l-7.232-9.472-8.128-8.96-370.56-370.496c-2.92-2.927-6.22-5.473-9.821-7.558l-0.227-0.122-6.72-3.328-6.592-2.176-156.16-39.040c-3.692-0.969-7.931-1.525-12.3-1.525-13.919 0-26.519 5.646-35.636 14.772v0c-8.145 8.255-13.436 19.344-14.264 31.656l-0.008 0.152-0.192 7.936 1.28 8 39.040 156.16c1.105 4.441 2.686 8.341 4.729 11.945l-0.121-0.233 4.032 6.336 4.544 5.312 370.624 370.496c48 48 128.704 50.496 180.096 7.552zM793.152 776.32l-286.144-286.080-15.36-61.312 61.44 15.36 286.080 286.016-46.080 46.080zM881.344 858.688l-5.504-2.048-4.992-3.072-3.072-2.624-3.52-3.456 46.080-45.952 3.456 3.392c4.731 4.678 8.016 10.811 9.127 17.671l0.025 0.185 0.384 5.12c0 0.058 0.001 0.127 0.001 0.196 0 8.935-3.647 17.017-9.534 22.841l-0.003 0.003c-6.029 5.587-14.128 9.014-23.028 9.014-3.356 0-6.599-0.487-9.66-1.395l0.24 0.061z" />
<glyph unicode="&#xe928;" glyph-name="ic-edit" d="M570.24 920.256l-420.032-0.32-10.496-1.088c-79.68-10.56-139.712-77.248-139.712-157.952v-662.784l0.384-10.624 1.088-10.56c10.688-79.744 78.528-140.928 159.36-140.928l673.6 0.384 10.432 1.088 0.88 0.106c78.429 11.47 138.673 78.943 138.832 160.534v407.936h-100.672l-0.064-409.024-0.256-6.272-1.152-6.784c-5.952-26.624-30.4-47.424-58.56-47.424l-670.336 0.448-6.592 1.088c-25.984 6.144-46.272 31.232-46.272 60.032v662.784l0.32 7.36 1.28 7.040 0.095 0.416c6.825 25.35 29.973 44.008 57.478 44.008 0.347 0 0.693-0.003 0.986-0.008h409.408v100.608zM976.704 929.6l8.32-7.552 7.936-8.704c20.096-23.872 31.040-53.76 31.040-85.44 0-27.072-8.128-53.12-23.68-75.712l-7.232-9.472-8.128-8.96-370.56-370.496c-2.92-2.927-6.22-5.473-9.821-7.558l-0.227-0.122-6.72-3.328-6.592-2.176-156.16-39.040c-3.692-0.969-7.931-1.525-12.3-1.525-13.919 0-26.519 5.646-35.636 14.772v0c-8.145 8.255-13.436 19.344-14.264 31.656l-0.008 0.152-0.192 7.936 1.28 8 39.040 156.16c1.105 4.441 2.686 8.341 4.729 11.945l-0.121-0.233 4.032 6.336 4.544 5.312 370.624 370.496c48 48 128.704 50.496 180.096 7.552zM793.152 776.32l-286.144-286.080-15.36-61.312 61.44 15.36 286.080 286.016-46.080 46.080zM881.344 858.688l-5.504-2.048-4.992-3.072-3.072-2.624-3.52-3.456 46.080-45.952 3.456 3.392c4.731 4.678 8.016 10.811 9.127 17.671l0.025 0.185 0.384 5.12c0 0.058 0.001 0.127 0.001 0.196 0 8.935-3.647 17.017-9.534 22.841l-0.003 0.003c-6.029 5.587-14.128 9.014-23.028 9.014-3.356 0-6.599-0.487-9.66-1.395l0.24 0.061z" />
<glyph unicode="&#xe929;" glyph-name="print" horiz-adv-x="1109" d="M805.803 960c11.52 0 19.84-9.899 19.84-21.461v-188.416h164.693c62.293 0 112.085-51.2 112.299-113.493v-381.867c0-62.549-49.792-113.493-112.085-113.493h-118.528v-183.808c0-11.52-8.32-21.461-19.84-21.461h-601.728c-11.52 0-19.84 9.899-19.84 21.461v183.765h-118.528c-62.293 0-112.085 51.2-112.085 113.493v381.867c0 62.293 49.835 113.493 112.085 113.493h164.693v188.459c0 11.52 8.277 21.461 19.797 21.461zM830.251 346.539h-558.037v-369.024h558.080v369.024zM712.064 115.968c12.288 0 22.4-9.216 22.4-20.779 0-11.52-9.813-20.736-22.187-20.736h-322.005c-12.288 0-22.144 9.216-22.144 20.736s9.813 20.779 22.144 20.779zM990.080 708.608h-877.995c-39.424 0-70.571-32.512-70.571-71.936v-381.952c0-39.424 31.147-71.936 70.571-71.936h118.528v184.491c0 11.52 8.32 20.779 19.84 20.779h601.515c11.52 0 19.797-9.259 19.797-20.779v-184.491h118.571c39.424 0 70.571 32.512 70.571 71.936h-0.256v381.952c0 39.424-31.147 71.936-70.571 71.936zM590.293 249.515c22.229 0 40.064-9.216 40.064-20.779 0-11.52-17.835-20.736-40.107-20.736h-182.059c-22.272 0-40.064 9.216-40.064 20.736s17.792 20.779 40.107 20.779zM897.067 602.539c7.979 0 14.379-9.259 14.379-20.779s-6.4-20.736-14.379-20.736h-148.267c-7.979 0-14.379 9.216-14.379 20.736s6.4 20.779 14.379 20.779zM784.128 918.485h-465.835v-168.363h465.92v168.363z" />
<glyph unicode="&#xe92a;" glyph-name="export" d="M410.667 625.579v-65.877h-64.213c-70.121-0.073-126.946-56.898-127.019-127.012v-303.794c0.049-70.139 56.882-126.988 127.012-127.061h356.487c70.121 0.073 126.946 56.898 127.019 127.012v303.836c-0.073 70.121-56.898 126.946-127.012 127.019h-68.402v65.877h68.395c106.47-0.121 192.75-86.387 192.896-192.839v-303.843c-0.121-106.455-86.363-192.726-192.794-192.896h-356.581c-106.451 0.146-192.708 86.402-192.853 192.839v303.843c0.121 106.47 86.387 192.75 192.839 192.896h64.227zM521.557 960l179.115-162.859c6.777-6.060 11.023-14.829 11.023-24.59 0-18.192-14.747-32.939-32.939-32.939-8.668 0-16.554 3.348-22.435 8.822l0.020-0.018-101.845 92.629v-516.139c0-18.192-14.747-32.939-32.939-32.939s-32.939 14.747-32.939 32.939v0 516.139l-101.931-92.629c-5.819-5.326-13.603-8.589-22.149-8.589-9.647 0-18.323 4.158-24.334 10.78l-0.024 0.027c-5.305 5.826-8.553 13.605-8.553 22.143 0 9.642 4.143 18.317 10.746 24.34l0.026 0.023 179.157 162.859z" />
<glyph unicode="&#xe92b;" glyph-name="list-edit" d="M1024 192v-128h-768v128h768zM128 192v-128h-128v128h128zM1024 512v-128h-768v128h768zM128 512v-128h-128v128h128zM1024 832v-128h-768v128h768zM128 832v-128h-128v128h128z" />
<glyph unicode="&#xe92c;" glyph-name="info" d="M1024 758.869c0 111.081-90.049 201.131-201.131 201.131v0h-621.739c-111.081 0-201.131-90.049-201.131-201.131v0-621.739c0-111.081 90.049-201.131 201.131-201.131v0h621.739c111.081 0 201.131 90.049 201.131 201.131v0 621.739zM930.987 137.131c0-59.648-48.469-108.032-108.117-108.032h-621.739c-59.733 0-108.032 48.384-108.032 108.032v621.739c0 59.648 48.384 108.032 108.032 108.032h621.739c59.733 0 108.032-48.384 108.032-108.032v-621.739zM654.507 168.704c0-25.685-20.822-46.507-46.507-46.507v0h-186.197c-25.685 0-46.507 20.822-46.507 46.507s20.822 46.507 46.507 46.507h43.691v279.381h-43.691c-25.708 0-46.549 20.841-46.549 46.549s20.841 46.549 46.549 46.549h136.704v-372.309h49.493c25.685 0 46.507-20.907 46.507-46.592zM442.197 701.099c0 38.551 31.252 69.803 69.803 69.803s69.803-31.252 69.803-69.803v0c0-38.551-31.252-69.803-69.803-69.803s-69.803 31.252-69.803 69.803v0z" />
<glyph unicode="&#xe92d;" glyph-name="ic-tests" horiz-adv-x="661" d="M109.717-39.243h441.899v-131.424h88.384v156.309c0.373 136.021-54.165 266.528-151.445 362.443l-95.403 94.581 95.403 94.581c97.28 95.925 151.819 226.421 151.445 362.443v156.309h-88.384v-131.424h-441.899v131.424h-88.384v-156.309c-0.373-136.021 54.165-266.528 151.445-362.443l95.403-94.581-95.403-94.581c-97.28-95.925-151.819-226.421-151.445-362.443v-156.309h88.384v131.424zM544 53.333h-426.667c7.265 47.854 21.909 90.946 42.857 130.162l-1.055-2.162h343.051c19.898-37.053 34.544-80.145 41.531-125.76l0.282-2.24zM117.333 832h426.667c-7.265-47.854-21.909-90.946-42.857-130.162l1.055 2.162h-343.051c-19.898 37.053-34.544 80.145-41.531 125.76l-0.282 2.24zM230.357 599.296c-6.027 6.208-11.435 12.885-17.024 19.371h224c-5.589-6.485-10.997-13.163-17.024-19.371l-94.976-97.963-94.976 97.963zM325.333 384l94.976-97.963c6.027-6.208 11.435-12.885 17.024-19.371h-224c5.589 6.485 10.997 13.163 17.024 19.371l94.976 97.963z" />
<glyph unicode="&#xe92e;" glyph-name="ic-contracts" horiz-adv-x="695" d="M605.26 947.358c5.815 0 11.39-2.174 15.512-6.511l182.752-189.946c3.881-4.096 5.575-9.406 5.575-14.943v-691.112c0-51.832-41.681-93.045-93.803-93.045h-34.639l-0.013-0.632h-43.627v0.632h-527.12c-52.11 0-95.738 41.213-95.738 93.045v731.364h-1.517v43.4h1.517v34.209c0 51.845 43.615 93.538 95.712 93.538zM583.693 903.971h-473.821c-28.103 0-52.098-22.174-52.098-50.138v-808.985c0-27.724 23.994-49.658 52.11-49.658h605.399c28.116 0 50.163 21.694 50.163 49.658v668.685h-160.186c-12.111 0-21.567 10.126-21.567 22.174v168.265zM625.133 197.676c12.124 0 21.82-9.646 21.82-21.694s-9.696-21.694-21.82-21.694h-415.403c-0.041 0-0.090 0-0.139 0-11.967 0-21.668 9.701-21.668 21.668 0 0.009 0 0.018 0 0.027v-0.001c0 12.048 9.696 21.694 21.807 21.694zM625.133 376.055c12.124 0 21.82-9.633 21.82-21.694 0-12.048-9.696-21.694-21.82-21.694h-415.403c-0.041 0-0.090 0-0.139 0-11.967 0-21.668 9.701-21.668 21.668 0 0.009 0 0.018 0 0.027v-0.001c0 12.060 9.696 21.694 21.807 21.694zM382.799 554.445c12.111 0 21.807-9.633 21.807-21.694 0-12.048-9.696-21.694-21.82-21.694h-173.056c-0.041 0-0.090 0-0.139 0-11.967 0-21.668 9.701-21.668 21.668 0 0.009 0 0.018 0 0.027v-0.001c0 12.060 9.696 21.694 21.807 21.694zM627.307 871.911v-114.991h109.783l-109.783 114.991z" />
<glyph unicode="&#xe92f;" glyph-name="ic-invite" horiz-adv-x="919" d="M172.544 933.744c-80.2 0-146.288-65.838-146.288-145.723v-680.041c0-79.885 66.087-145.723 146.288-145.723h1072.758c80.2 0 146.288 65.838 146.288 145.723v680.041c0 79.885-66.087 145.723-146.288 145.723h-1072.758zM183.795 841.846h1050.256l-492.045-456.573c-23.040-21.399-43.678-21.386-66.678 0l-491.533 456.573zM118.154 763.077l483.801-445.532c55.834-51.371 143.964-51.292 199.811 0l484.798 445.532v-647.352c0-27.674-20.874-48.443-48.679-48.443h-1071.051c-27.806 0-48.679 20.769-48.679 48.443v647.352z" />
<glyph unicode="&#xe930;" glyph-name="ic-employee" horiz-adv-x="861" d="M649.763 422.854c146.385 0 262.749-116.364 262.749-262.749v-375.377h-75.066v375.366c0 105.1-82.583 187.695-187.695 187.695h-41.286l-105.1-277.783c-11.264-11.264-26.275-22.516-41.286-22.516s-30.033 11.252-33.792 22.516l-105.1 277.772h-48.791c-105.111 0-187.695-82.583-187.695-187.683v-375.366h-75.066v375.366c0 146.385 116.364 262.749 262.749 262.749zM499.607-140.195v-75.078h-75.066v75.078h75.066zM274.397 47.476v-262.749h-75.078v262.749h75.078zM724.841 47.476v-262.749h-75.078v262.749h75.066zM499.607 9.937v-75.078h-75.066v75.078h75.066zM525.894 347.764h-120.134l60.055-157.649 60.067 157.649zM499.607 948.364c105.111 0 187.695-82.583 187.695-187.683v-112.605c0-105.111-82.583-187.695-187.695-187.695h-75.066c-105.1 0-187.695 82.583-187.695 187.695v112.593c0.012 105.111 82.607 187.695 187.706 187.695zM499.607 873.286h-75.066c-63.814 0-112.617-48.791-112.617-112.605v-112.605c0-63.814 48.803-112.617 112.617-112.617h75.066c63.814 0 112.617 48.803 112.617 112.617v112.593c0 63.814-48.803 112.605-112.617 112.605z" />
<glyph unicode="&#xe931;" glyph-name="Place-Holder-Icon" d="M926.897 22.51h-829.793c-10.593 0-17.655 7.062-17.655 17.655v815.669c0 10.593 7.062 17.655 17.655 17.655h829.793c10.593 0 17.655-7.062 17.655-17.655v-813.903c0-10.593-7.062-19.421-17.655-19.421zM114.759 57.821h794.483v780.359h-794.483v-780.359zM926.897 179.641c-5.297 0-8.828 1.766-12.359 5.297l-284.248 278.952-201.269-195.972c-7.062-7.062-17.655-7.062-24.717 0s-7.062 17.655 0 24.717l213.628 210.097c7.062 7.062 17.655 7.062 24.717 0l296.607-291.31c7.062-7.062 7.062-17.655 0-24.717-3.531-5.297-7.062-7.062-12.359-7.062zM660.303 22.51c-5.297 0-8.828 1.766-12.359 5.297l-307.2 301.903-231.283-225.986c-7.062-7.062-17.655-7.062-24.717 0s-7.062 17.655 0 24.717l243.641 238.345c7.062 7.062 17.655 7.062 24.717 0l319.559-314.262c7.062-7.062 7.062-17.655 0-24.717-3.531-3.531-7.062-5.297-12.359-5.297zM391.945 527.448c-40.607 0-72.386 31.779-72.386 70.621s31.779 70.621 72.386 70.621 72.386-31.779 72.386-70.621-33.545-70.621-72.386-70.621zM391.945 635.145c-21.186 0-37.076-15.89-37.076-35.31s15.89-35.31 37.076-35.31 37.076 15.89 37.076 35.31-17.655 35.31-37.076 35.31z" />
<glyph unicode="&#xe933;" glyph-name="undo" d="M896.512 781.312c-78.337 78.752-186.781 127.489-306.608 127.489-0.388 0-0.776-0.001-1.164-0.002h0.060c-116.224 0-225.536-45.261-307.712-127.488-78.752-78.345-127.489-186.795-127.489-306.629 0-0.381 0-0.762 0.001-1.142v0.059-66.202l-109.875 109.875c-4.599 4.446-10.872 7.186-17.785 7.186-14.138 0-25.6-11.462-25.6-25.6 0-6.913 2.74-13.186 7.193-17.792l153.593-153.593c4.623-4.671 11.036-7.564 18.125-7.564s13.501 2.893 18.123 7.562l153.602 153.602c4.446 4.599 7.186 10.872 7.186 17.785 0 14.138-11.462 25.6-25.6 25.6-6.913 0-13.186-2.74-17.792-7.193l-109.868-109.868v66.202c0 211.763 172.237 384 384 384s384-172.237 384-384-172.237-384-384-384c-14.138 0-25.6-11.462-25.6-25.6s11.462-25.6 25.6-25.6v0c116.224 0 225.536 45.261 307.712 127.488 78.752 78.345 127.489 186.795 127.489 306.629 0 0.381 0 0.762-0.001 1.142v-0.059c0 116.224-45.261 225.536-127.488 307.712h-0.102z" />
<glyph unicode="&#xe936;" glyph-name="run" d="M339.149 564.69c8.251 62.244 60.989 109.773 124.829 109.773 66.292 0 120.613-51.251 125.503-116.293l0.025-0.421 123.813-45.852c19.573-8.164 33.080-27.145 33.080-49.281 0-29.408-23.84-53.248-53.248-53.248-6.013 0-11.793 0.997-17.184 2.834l0.375-0.111-98.35 36.432-10.877-84.514c-0.182-1.343-0.501-2.617-0.728-3.959l159.744-298.53c2.045-5.9 3.226-12.699 3.226-19.775 0-34.363-27.857-62.22-62.22-62.22-27.288 0-50.473 17.566-58.863 42.008l-0.131 0.438-101.262 124.086-100.511-115.439c-5.5-29.236-30.833-51.059-61.263-51.059-3.924 0-7.763 0.363-11.485 1.057l0.385-0.060c-29.237 5.466-51.070 30.787-51.070 61.208 0 3.943 0.367 7.801 1.068 11.541l-0.060-0.386 117.419 208.145c-49.823 17.485-84.907 64.119-84.907 118.947 0 5.663 0.374 11.238 1.099 16.703l-0.070-0.641zM675.089 370.95c1.307 0.927 2.935 1.482 4.692 1.482 2.767 0 5.213-1.376 6.691-3.481l0.017-0.026c0.387-0.683 15.019-21.299 15.132-49.721 0.228-22.869-10.581-50.517-44.419-72.476-1.192-0.716-2.631-1.14-4.168-1.14-4.524 0-8.192 3.668-8.192 8.192 0 2.712 1.318 5.117 3.349 6.608l0.023 0.016c29.924 19.911 36.864 40.755 37.023 58.8 0.046 16.862-6.986 31.539-10.422 37.547-1.183 1.957-1.752 2.822-1.752 2.822-0.921 1.302-1.473 2.923-1.473 4.672 0 2.77 1.382 5.216 3.494 6.688l0.027 0.018zM637.042 359.708c1.374 1.086 3.132 1.743 5.043 1.743 2.613 0 4.939-1.227 6.435-3.136l0.013-0.018c0.41-0.683 12.242-15.383 12.402-36.477 0.159-15.155-7.145-33.178-27.762-47.673-1.246-0.805-2.769-1.284-4.403-1.284-4.524 0-8.192 3.668-8.192 8.192 0 2.585 1.197 4.89 3.067 6.392l0.016 0.012c17.067 12.379 20.73 24.007 20.89 34.361 0.068 10.832-5.143 20.708-7.714 24.622-0.819 1.32-1.229 1.82-1.229 1.82-1.068 1.367-1.712 3.11-1.712 5.004 0 2.609 1.223 4.933 3.128 6.429l0.018 0.013zM361.404 713.148c5.621 0 11.696-0.683 18.273-2.253 3.801-0.76 6.625-4.071 6.625-8.041 0-4.524-3.668-8.192-8.192-8.192-0.787 0-1.548 0.111-2.268 0.318l0.058-0.014c-4.337 1.107-9.326 1.768-14.462 1.82h-0.033c-24.758 0-33.633-18.045-37.478-28.126-0.683-1.911-1.092-3.3-1.274-4.119l-0.205-0.842c-0.689-3.833-3.999-6.704-7.98-6.704-0.55 0-1.087 0.055-1.607 0.159l0.052-0.009c-3.834 0.733-6.693 4.059-6.693 8.054 0 0.532 0.051 1.052 0.147 1.555l-0.008-0.051c0.159 0.683 2.139 11.514 9.967 23.006 9.568 14.222 25.602 23.454 43.792 23.454 0.452 0 0.903-0.006 1.353-0.017l-0.067 0.001zM353.075 751.536c11.159-0.084 21.902-1.724 32.067-4.713l-0.824 0.208c3.358-1.074 5.747-4.167 5.747-7.819 0-4.524-3.668-8.192-8.192-8.192-0.667 0-1.315 0.080-1.935 0.23l0.056-0.011c-8.040 2.395-17.291 3.826-26.859 3.936l-0.061 0.001c-38.73 0.023-54.773-28.194-61.167-43.167-2.025-4.87-2.685-7.737-2.685-7.737-0.902-3.631-4.134-6.279-7.984-6.279-0.68 0-1.34 0.083-1.972 0.238l0.056-0.012c-3.623 0.908-6.263 4.135-6.263 7.98 0 0.689 0.085 1.359 0.245 1.998l-0.012-0.057c0.228 0.614 3.868 15.815 15.588 31.539 14.217 19.412 36.926 31.875 62.545 31.875 0.579 0 1.157-0.006 1.734-0.019l-0.086 0.001zM437.589 859.193c20.392 46.281 65.86 78.004 118.738 78.004 71.452 0 129.375-57.923 129.375-129.375 0-18.574-3.914-36.233-10.962-52.198l0.326 0.828c-20.392-46.281-65.86-78.004-118.738-78.004-71.452 0-129.375 57.923-129.375 129.375 0 18.574 3.914 36.233 10.962 52.198l-0.326-0.828z" />
<glyph unicode="&#xe937;" glyph-name="walk" d="M318.805 560.321c8.257 63.057 61.651 111.24 126.298 111.24 67.124 0 122.116-51.945 126.969-117.83l0.025-0.418 125.269-46.421c19.719-8.295 33.312-27.454 33.312-49.788 0-29.747-24.115-53.862-53.862-53.862-6.029 0-11.827 0.991-17.239 2.818l0.38-0.111-99.487 36.818-11.014-85.493c-0.182-1.365-0.501-2.662-0.728-4.005l101.285-302.034c1.886-5.713 2.973-12.29 2.973-19.12 0-34.774-28.19-62.965-62.965-62.965-27.273 0-50.496 17.34-59.246 41.596l-0.138 0.439-42.098 125.565-21.276-116.804c-6.145-28.844-31.407-50.165-61.65-50.165-34.774 0-62.965 28.19-62.965 62.965 0 3.434 0.275 6.804 0.804 10.090l-0.048-0.361 38.343 210.648c-50.405 17.701-85.896 64.885-85.896 120.359 0 5.727 0.378 11.365 1.111 16.891l-0.070-0.648zM438.5 858.283c20.622 46.809 66.609 78.895 120.090 78.895 72.263 0 130.844-58.581 130.844-130.844s-58.581-130.844-130.844-130.844c-18.769 0-36.615 3.952-52.751 11.069l0.838-0.33c-46.83 20.599-78.937 66.589-78.937 120.078 0 18.785 3.96 36.645 11.091 52.791l-0.33-0.837z" />
<glyph unicode="&#xe938;" glyph-name="crawl" d="M979.854 57.287c24.394 0 44.146-19.479 44.146-43.554-0.154-24.113-19.737-43.6-43.872-43.6-0.096 0-0.193 0-0.289 0.001h-935.693c-24.394 0-44.146 19.524-44.146 43.6s19.775 43.577 44.146 43.577zM556.76 587.856c6.302 1.082 13.56 1.7 20.962 1.7 46.527 0 87.349-24.429 110.338-61.161l0.318-0.545c3.14-4.415 5.825-9.262 7.805-14.564l1.092-2.981c1.070-2.594 2.025-5.211 2.935-7.851l91.25-244.895c12.129-32.54-4.756-68.585-37.683-80.555-6.523-2.456-14.062-3.882-21.933-3.891h-0.004c-0.060 0-0.131 0-0.203 0-27.026 0-50.108 16.887-59.27 40.685l-0.147 0.434-47.787 128.228c-8.192-3.14-16.839-5.53-25.896-6.963l-109.568-17.704 25.805-40.459c13.335-20.912 14.108-47.423 2.025-69.063-12.070-21.126-34.463-35.135-60.128-35.135-0.037 0-0.075 0-0.112 0h-232.943c-38.002 0-68.79 30.424-68.79 67.948 0 37.547 30.811 67.971 68.79 67.971h108.203l-34.020 53.362c-1.181 1.682-2.579 3.835-3.912 6.031l-0.32 0.568-1.98 3.14c-2.887 4.477-5.356 9.629-7.146 15.088l-0.135 0.477c-2.926 7.265-5.339 15.801-6.836 24.648l-0.105 0.748c-11.583 69.7 36.25 135.418 106.815 146.819zM861.503 438.625c1.97 2.701 5.125 4.436 8.684 4.436 2.285 0 4.402-0.715 6.142-1.933l-0.034 0.023c0.751-0.774 45.557-31.175 46.057-85.857 0.046-21.959-7.805-47.058-28.058-73.66-1.975-2.546-5.035-4.17-8.474-4.17-2.396 0-4.608 0.788-6.391 2.119l0.028-0.020c-2.575 1.906-4.226 4.933-4.226 8.346 0 2.365 0.793 4.545 2.128 6.288l-0.018-0.025c17.977 23.802 23.802 44.055 23.825 61.121 0.159 31.448-20.844 54.727-31.585 64.239-1.671 1.55-3.474 3.035-5.361 4.411l-0.169 0.117c-2.72 1.898-4.478 5.012-4.478 8.537 0 2.261 0.723 4.353 1.951 6.057l-0.021-0.031zM820.156 408.656c1.923 2.968 5.219 4.903 8.966 4.903 2.082 0 4.024-0.597 5.664-1.63l-0.044 0.026c0.751-0.751 34.429-20.708 35.044-60.462 0.023-14.336-4.915-30.447-16.771-47.354-1.952-2.75-5.124-4.522-8.71-4.522-2.246 0-4.33 0.696-6.048 1.883l0.036-0.023c-2.792 1.879-4.604 5.027-4.604 8.598 0 2.236 0.71 4.306 1.917 5.997l-0.021-0.031c9.876 14.177 12.971 25.828 13.016 35.453 0.182 19.57-14.017 34.133-21.504 40.050-1.365 1.138-2.344 1.82-2.958 2.253l-0.683 0.455c-2.975 1.859-4.925 5.116-4.925 8.829 0 2.069 0.606 3.997 1.65 5.616l-0.025-0.041zM775.214 821.077c82.512 14.632 161.428-39.64 176.196-121.151 14.791-81.533-40.141-159.471-122.652-174.080-82.557-14.564-161.428 39.663-176.219 121.196-14.791 81.51 40.141 159.448 122.675 174.034zM321.149 616.687c5.188 0 10.695-0.41 16.589-1.32 5.268-0.595 9.325-5.026 9.325-10.405 0-5.781-4.686-10.468-10.468-10.468-0.739 0-1.461 0.077-2.157 0.222l0.068-0.012c-4.012 0.652-8.646 1.032-13.365 1.047h-0.015c-36.318-0.137-46.376-25.099-50.881-39.185-0.596-1.956-1.113-4.327-1.45-6.755l-0.029-0.254-0.41-1.957c-1.397-4.322-5.384-7.393-10.089-7.393-0.414 0-0.822 0.024-1.224 0.070l0.049-0.005c-5.328 0.534-9.453 4.994-9.453 10.418 0 0.378 0.020 0.751 0.059 1.119l-0.004-0.046c0.137 0.865 1.707 16.043 11.605 32.154 9.671 16.111 29.696 32.996 61.85 32.768zM309.567 664.883c9.398 0 19.524-0.956 30.424-3.026 5.114-0.746 8.997-5.101 8.997-10.364 0-5.781-4.686-10.468-10.468-10.468-0.892 0-1.757 0.112-2.584 0.321l0.072-0.016c-7.924 1.626-17.054 2.584-26.398 2.639h-0.044c-56.138-0.114-75.321-39.595-82.853-60.621-2.276-6.849-2.958-10.923-2.958-10.968-0.888-5.008-5.208-8.762-10.405-8.762-0.601 0-1.19 0.050-1.763 0.147l0.062-0.009c-5.063 0.793-8.891 5.124-8.891 10.348 0 0.58 0.047 1.15 0.138 1.705l-0.008-0.061c0.159 0.865 3.595 22.209 18.591 44.351 14.791 22.118 42.871 44.988 88.087 44.783z" />
<glyph unicode="&#xe939;" glyph-name="sit" d="M979.877 47.73c0.298 0.007 0.65 0.011 1.002 0.011 24.368 0 44.123-19.755 44.123-44.123s-19.755-44.123-44.123-44.123c-0.352 0-0.704 0.004-1.054 0.012l0.052-0.001h-935.754c-0.298-0.007-0.65-0.011-1.002-0.011-24.368 0-44.123 19.755-44.123 44.123s19.755 44.123 44.123 44.123c0.352 0 0.704-0.004 1.054-0.012l-0.052 0.001zM390.19 592.703c5.484 0.705 11.105 0.751 16.839-0.046l3.482-0.478c2.571-0.273 5.12-0.66 7.669-1.092l262.098-36.773c31.084-4.48 54.705-30.935 54.705-62.908 0-35.083-28.44-63.523-63.523-63.523-3.11 0-6.168 0.224-9.159 0.655l0.341-0.040-137.079 19.228c-1.070-8.761-3.049-17.522-6.007-26.192l-26.396-77.050 65.081 16.134c4.966 1.281 10.667 2.016 16.54 2.016 8.24 0 16.142-1.447 23.466-4.102l-0.479 0.152 169.415-59.984c26.398-10.030 44.818-35.119 44.818-64.51 0-38.017-30.819-68.836-68.836-68.836-7.854 0-15.401 1.315-22.433 3.738l0.484-0.145-149.936 53.111-194.81-48.219c-10.833-3.294-23.284-5.191-36.177-5.191-14.954 0-29.312 2.551-42.662 7.242l0.902-0.276c-51.344 17.956-87.512 65.983-87.512 122.457 0 15.013 2.556 29.429 7.257 42.837l-0.277-0.907 56.639 165.433c17.215 49.15 61.922 84.324 115.22 87.253l0.332 0.015zM388.506 809.631c20.427 61.356 77.325 104.814 144.373 104.814 83.858 0 151.838-67.98 151.838-151.838 0-16.81-2.732-32.982-7.775-48.096l0.31 1.072c-20.427-61.356-77.325-104.814-144.373-104.814-83.858 0-151.838 67.98-151.838 151.838 0 16.81 2.732 32.982 7.775 48.096l-0.31-1.072z" />
</font>
</defs>
</svg>
