<?xml version="1.0" encoding="utf-8"?>
<!-- Generator: Adobe Illustrator 21.1.0, SVG Export Plug-In . SVG Version: 6.00 Build 0)  -->
<svg version="1.1" id="Layer_1" xmlns="http://www.w3.org/2000/svg" xmlns:xlink="http://www.w3.org/1999/xlink" x="0px" y="0px"
	 viewBox="0 0 20 20" style="enable-background:new 0 0 20 20;" xml:space="preserve">
<style type="text/css">
	.st0{fill:url(#SVGID_1_);}
</style>
<linearGradient id="SVGID_1_" gradientUnits="userSpaceOnUse" x1="13.9599" y1="-0.9972" x2="6.3889" y2="21.4993">
	<stop  offset="0" style="stop-color:#5B7598"/>
	<stop  offset="1" style="stop-color:#4D4F90"/>
</linearGradient>
<path class="st0" d="M3.1,0v1.5H2.3C1,1.5,0,2.6,0,3.8v13.8C0,19,1,20,2.3,20h15.4c1.3,0,2.3-1,2.3-2.3V3.8c0-1.3-1-2.3-2.3-2.3
	h-0.8V0h-1.5v1.5H4.6V0H3.1z M2.3,3.1h0.8v1.5h1.5V3.1h10.8v1.5h1.5V3.1h0.8c0.4,0,0.8,0.3,0.8,0.8v2.3H1.5V3.8
	C1.5,3.4,1.9,3.1,2.3,3.1z M1.5,7.7h16.9v10c0,0.4-0.3,0.8-0.8,0.8H2.3c-0.4,0-0.8-0.3-0.8-0.8V7.7z M6.2,9.2v1.5h1.5V9.2H6.2z
	 M9.2,9.2v1.5h1.5V9.2H9.2z M12.3,9.2v1.5h1.5V9.2H12.3z M15.4,9.2v1.5h1.5V9.2H15.4z M3.1,12.3v1.5h1.5v-1.5H3.1z M6.2,12.3v1.5
	h1.5v-1.5H6.2z M9.2,12.3v1.5h1.5v-1.5H9.2z M12.3,12.3v1.5h1.5v-1.5H12.3z M15.4,12.3v1.5h1.5v-1.5H15.4z M3.1,15.4v1.5h1.5v-1.5
	H3.1z M6.2,15.4v1.5h1.5v-1.5H6.2z M9.2,15.4v1.5h1.5v-1.5H9.2z"/>
</svg>
