<svg xmlns="http://www.w3.org/2000/svg" width="45" height="45" viewBox="0 0 45 45">
    <path fill="#D5D8E6" fill-rule="nonzero" d="M43.06 39.67c1.072 0 1.94.856 1.94 1.914a1.928 1.928 0 0 1-1.94 1.916H1.94C.868 43.5 0 42.642 0 41.584c0-1.058.869-1.915 1.94-1.915zM24.467 16.354a5.716 5.716 0 0 1 5.784 2.637c.138.194.256.407.343.64l.048.131c.047.114.089.229.129.345l4.01 10.762c.533 1.43-.209 3.014-1.656 3.54a2.82 2.82 0 0 1-.964.171 2.79 2.79 0 0 1-2.62-1.807l-2.1-5.635c-.36.138-.74.243-1.138.306l-4.815.778L22.622 30c.586.919.62 2.084.089 3.035a3.033 3.033 0 0 1-2.647 1.544H9.827c-1.67 0-3.023-1.337-3.023-2.986 0-1.65 1.354-2.987 3.023-2.987h4.755l-1.495-2.345a5.622 5.622 0 0 1-.186-.29l-.087-.138a2.962 2.962 0 0 1-.32-.684 5.579 5.579 0 0 1-.305-1.116c-.509-3.063 1.593-5.951 4.694-6.452zm13.392 6.558a.471.471 0 0 1 .65-.111c.033.034 2.002 1.37 2.024 3.773.002.965-.343 2.068-1.233 3.237a.47.47 0 0 1-.652.091.455.455 0 0 1-.093-.642c.79-1.046 1.046-1.936 1.047-2.686.007-1.382-.916-2.405-1.388-2.823a2.601 2.601 0 0 0-.243-.199.456.456 0 0 1-.112-.64zm-1.817 1.317a.468.468 0 0 1 .641-.145c.033.033 1.513.91 1.54 2.657.001.63-.216 1.338-.737 2.081a.468.468 0 0 1-.647.117.454.454 0 0 1-.119-.64c.434-.623.57-1.135.572-1.558.008-.86-.616-1.5-.945-1.76-.06-.05-.103-.08-.13-.099l-.03-.02a.456.456 0 0 1-.145-.633zM34.067 6.105c3.626-.643 7.094 1.742 7.743 5.324.65 3.583-1.764 7.008-5.39 7.65-3.628.64-7.094-1.743-7.744-5.326-.65-3.582 1.764-7.007 5.391-7.648zm-19.954 8.982c.228 0 .47.018.729.058a.46.46 0 1 1-.142.908 3.934 3.934 0 0 0-.588-.046c-1.596.006-2.038 1.103-2.236 1.722a2.128 2.128 0 0 0-.065.308l-.018.086a.465.465 0 0 1-.495.322.46.46 0 0 1-.413-.505c.006-.038.075-.705.51-1.413.425-.708 1.305-1.45 2.718-1.44zm-.509-2.118c.413 0 .858.042 1.337.133a.46.46 0 1 1-.175.902 6.237 6.237 0 0 0-1.162-.116c-2.467.005-3.31 1.74-3.641 2.664-.1.301-.13.48-.13.482a.464.464 0 0 1-.532.379.46.46 0 0 1-.385-.527c.007-.038.158-.976.817-1.949.65-.972 1.884-1.977 3.871-1.968z"/>
</svg>
