<?xml version="1.0" encoding="utf-8"?>
<!-- Generator: Adobe Illustrator 21.1.0, SVG Export Plug-In . SVG Version: 6.00 Build 0)  -->
<svg version="1.1" id="Layer_2" xmlns="http://www.w3.org/2000/svg" xmlns:xlink="http://www.w3.org/1999/xlink" x="0px" y="0px"
	 viewBox="0 0 100 100" style="enable-background:new 0 0 100 100;" xml:space="preserve">
<g>
	<path d="M55.5,79.6h-11c-1.9,0-3.5-1.6-3.5-3.5l0-13.8C34.3,59,30,52.1,30,44.5c0-11,9-20,20-20c11,0,20,9,20,20
		c0,7.6-4.3,14.5-11,17.9l0,13.8C59,78,57.4,79.6,55.5,79.6z M44,76.1c0,0.3,0.2,0.5,0.5,0.5h11c0.3,0,0.5-0.2,0.5-0.5l0-15.7
		l0.9-0.4C63,57.3,67,51.2,67,44.5c0-9.4-7.6-17-17-17s-17,7.6-17,17c0,6.7,4,12.8,10.1,15.6l0.9,0.4L44,76.1z"/>
</g>
<g>
	<path d="M53.5,78.1c0,1.9-1.6,3.5-3.5,3.5s-3.5-1.6-3.5-3.5"/>
</g>
<g>
	<path d="M50,55.4c-2.6,0-5.1-1.4-6.5-3.7c-0.7-1.1-0.7-2.4,0-3.5c0.6-1.1,1.8-1.8,3-1.8h6.2c1.7,0,3.1,0.7,3.8,1.9
		c0.6,1,0.6,2.3,0,3.4C55.1,53.9,52.6,55.4,50,55.4z M46.5,49.4c-0.2,0-0.4,0.1-0.4,0.2c-0.1,0.1-0.1,0.3,0,0.5
		c0.8,1.4,2.3,2.2,3.9,2.2s3.1-0.9,3.9-2.2c0.1-0.2,0.1-0.3,0-0.4c-0.1-0.2-0.5-0.4-1.2-0.4H46.5z"/>
</g>
<g>
	<rect x="48.5" y="53.5" width="3" height="16.7"/>
</g>
<g>
	<rect x="41.9" y="68.2" width="16" height="3"/>
</g>
<g>
	<path d="M40,44.5h-3c0-7.1,5.8-12.8,13-12.8v3C44.5,34.7,40,39.1,40,44.5z"/>
</g>
<g>
	<g>
		<g>
			<path d="M76.5,45.5h-5c-0.6,0-1-0.4-1-1s0.4-1,1-1h5c0.6,0,1,0.4,1,1S77,45.5,76.5,45.5z"/>
		</g>
	</g>
	<g>
		<g>
			<path d="M50,24c-0.6,0-1-0.4-1-1v-5c0-0.6,0.4-1,1-1s1,0.4,1,1v5C51,23.6,50.6,24,50,24z"/>
		</g>
	</g>
	<g>
		<g>
			<path d="M65.2,30.3c-0.3,0-0.5-0.1-0.7-0.3c-0.4-0.4-0.4-1,0-1.4L68,25c0.4-0.4,1-0.4,1.4,0c0.4,0.4,0.4,1,0,1.4L65.9,30
				C65.7,30.2,65.4,30.3,65.2,30.3z"/>
		</g>
	</g>
	<g>
		<g>
			<path d="M31.3,64.2c-0.3,0-0.5-0.1-0.7-0.3c-0.4-0.4-0.4-1,0-1.4l3.5-3.5c0.4-0.4,1-0.4,1.4,0s0.4,1,0,1.4L32,63.9
				C31.8,64.1,31.5,64.2,31.3,64.2z"/>
		</g>
	</g>
	<g>
		<g>
			<path d="M34.8,30.3c-0.3,0-0.5-0.1-0.7-0.3l-3.5-3.5c-0.4-0.4-0.4-1,0-1.4s1-0.4,1.4,0l3.5,3.5c0.4,0.4,0.4,1,0,1.4
				C35.3,30.2,35.1,30.3,34.8,30.3z"/>
		</g>
	</g>
	<g>
		<g>
			<path d="M28.5,45.5h-5c-0.6,0-1-0.4-1-1s0.4-1,1-1h5c0.6,0,1,0.4,1,1S29.1,45.5,28.5,45.5z"/>
		</g>
	</g>
	<g>
		<g>
			<path d="M68.7,64.2c-0.3,0-0.5-0.1-0.7-0.3l-3.5-3.5c-0.4-0.4-0.4-1,0-1.4s1-0.4,1.4,0l3.5,3.5c0.4,0.4,0.4,1,0,1.4
				C69.2,64.1,69,64.2,68.7,64.2z"/>
		</g>
	</g>
</g>
</svg>
