<?xml version="1.0" encoding="utf-8"?>
<!-- Generator: Adobe Illustrator 21.1.0, SVG Export Plug-In . SVG Version: 6.00 Build 0)  -->
<svg version="1.1" id="Add_Program_copy" xmlns="http://www.w3.org/2000/svg" xmlns:xlink="http://www.w3.org/1999/xlink" x="0px"
	 y="0px" viewBox="0 0 100 100" style="enable-background:new 0 0 100 100;" xml:space="preserve">
<g>
	<path d="M70.5,79h-39c-0.8,0-1.5-0.7-1.5-1.5s0.7-1.5,1.5-1.5h39c0.9,0,1.5-0.6,1.5-1.5V24H33v43.5c0,0.8-0.7,1.5-1.5,1.5
		S30,68.3,30,67.5v-45c0-0.8,0.7-1.5,1.5-1.5h42c0.8,0,1.5,0.7,1.5,1.5v52C75,77,73,79,70.5,79z"/>
</g>
<g>
	<g>
		<path d="M69.9,79c-2.5,0-4.5-2-4.5-4.5V69H28v4.5c0,1.4,1.1,2.5,2.5,2.5c0.8,0,1.5,0.7,1.5,1.5S31.3,79,30.5,79
			c-3,0-5.5-2.5-5.5-5.5v-6c0-0.8,0.7-1.5,1.5-1.5h40.4c0.8,0,1.5,0.7,1.5,1.5v7c0,0.9,0.6,1.5,1.5,1.5c0.8,0,1.5,0.7,1.5,1.5
			S70.7,79,69.9,79z"/>
	</g>
</g>
<g>
	<path d="M62.5,69h-25c-0.8,0-1.5-0.7-1.5-1.5v-33c0-0.8,0.7-1.5,1.5-1.5h25c0.8,0,1.5,0.7,1.5,1.5v33C64,68.3,63.3,69,62.5,69z
		 M39,66h22V36H39V66z"/>
</g>
<g>
	<path d="M46.5,45h-9c-0.8,0-1.5-0.7-1.5-1.5v-9c0-0.8,0.7-1.5,1.5-1.5h9c0.8,0,1.5,0.7,1.5,1.5v9C48,44.3,47.3,45,46.5,45z M39,42
		h6v-6h-6V42z"/>
</g>
<g>
	<path d="M52.5,45c-0.8,0-1.5-0.7-1.5-1.5v-9c0-0.8,0.7-1.5,1.5-1.5s1.5,0.7,1.5,1.5v9C54,44.3,53.3,45,52.5,45z"/>
</g>
<g>
	<path d="M62.5,55h-25c-0.8,0-1.5-0.7-1.5-1.5s0.7-1.5,1.5-1.5h25c0.8,0,1.5,0.7,1.5,1.5S63.3,55,62.5,55z"/>
</g>
</svg>
