<svg xmlns="http://www.w3.org/2000/svg" width="24" height="24" viewBox="0 0 24 24">
    <defs>
        <linearGradient id="a" x1="76.272%" x2="23.728%" y1="0%" y2="100%">
            <stop offset="0%" stop-color="#5B7598"/>
            <stop offset="100%" stop-color="#4D4F90"/>
        </linearGradient>
    </defs>
    <path fill="url(#a)" fill-rule="nonzero" stroke="url(#a)" stroke-width=".5" d="M9.625 7.838v1.544H8.12a2.98 2.98 0 0 0-2.977 2.977v7.12a2.98 2.98 0 0 0 2.977 2.978h8.355a2.98 2.98 0 0 0 2.977-2.977v-7.121a2.98 2.98 0 0 0-2.977-2.977h-1.603V7.838h1.603a4.526 4.526 0 0 1 4.521 4.52v7.121A4.526 4.526 0 0 1 16.477 24H8.12A4.526 4.526 0 0 1 3.6 19.48v-7.121a4.526 4.526 0 0 1 4.52-4.521h1.505zM12.224 0l4.198 3.817a.772.772 0 1 1-1.039 1.142l-2.387-2.171v12.097a.772.772 0 0 1-1.544 0V2.788L9.063 4.959a.77.77 0 0 1-1.09-.052.772.772 0 0 1 .052-1.09L12.224 0z"/>
</svg>
