<?xml version="1.0" encoding="utf-8"?>
<!-- Generator: Adobe Illustrator 21.1.0, SVG Export Plug-In . SVG Version: 6.00 Build 0)  -->
<svg version="1.1" id="Layer_1" fill="#929191" xmlns="http://www.w3.org/2000/svg" xmlns:xlink="http://www.w3.org/1999/xlink" x="0px" y="0px"
	 viewBox="0 0 120 120" style="enable-background:new 0 0 120 120;" xml:space="preserve">
<g>
	<g>
		<g>
			<g>
				<path d="M29,79.9c-3.4,0-6.2-2.7-6.2-6.1s2.8-6.1,6.2-6.1c3.4,0,6.2,2.7,6.2,6.1S32.5,79.9,29,79.9z M29,70.6
					c-1.8,0-3.2,1.4-3.2,3.1s1.5,3.1,3.2,3.1c1.8,0,3.2-1.4,3.2-3.1S30.8,70.6,29,70.6z"/>
			</g>
			<g>
				<path d="M38.5,88.1c-0.8,0-1.5-0.7-1.5-1.5c0-3.4-2.2-6.4-5.4-7.5c-0.8-0.3-1.2-1.1-0.9-1.9c0.3-0.8,1.1-1.2,1.9-0.9
					C37,77.7,40,81.9,40,86.6C40,87.4,39.3,88.1,38.5,88.1z"/>
			</g>
			<g>
				<path d="M19.6,88.1c-0.8,0-1.5-0.7-1.5-1.5c0-4.7,3-8.9,7.4-10.4c0.8-0.3,1.6,0.1,1.9,0.9c0.3,0.8-0.1,1.6-0.9,1.9
					c-3.2,1.1-5.4,4.1-5.4,7.5C21.1,87.4,20.4,88.1,19.6,88.1z"/>
			</g>
		</g>
		<g>
			<g>
				<path d="M91,79.9c-3.4,0-6.2-2.7-6.2-6.1s2.8-6.1,6.2-6.1s6.2,2.7,6.2,6.1S94.4,79.9,91,79.9z M91,70.6c-1.8,0-3.2,1.4-3.2,3.1
					s1.5,3.1,3.2,3.1s3.2-1.4,3.2-3.1S92.8,70.6,91,70.6z"/>
			</g>
			<g>
				<path d="M100.4,88.1c-0.8,0-1.5-0.7-1.5-1.5c0-3.4-2.2-6.4-5.4-7.5c-0.8-0.3-1.2-1.1-0.9-1.9c0.3-0.8,1.1-1.2,1.9-0.9
					c4.4,1.5,7.4,5.7,7.4,10.4C101.9,87.4,101.3,88.1,100.4,88.1z"/>
			</g>
			<g>
				<path d="M81.5,88.1c-0.8,0-1.5-0.7-1.5-1.5c0-4.7,3-8.9,7.4-10.4c0.8-0.3,1.6,0.1,1.9,0.9c0.3,0.8-0.1,1.6-0.9,1.9
					c-3.2,1.1-5.4,4.1-5.4,7.5C83,87.4,82.3,88.1,81.5,88.1z"/>
			</g>
		</g>
		<g>
			<path d="M29,92.2c-9.2,0-16.7-7.5-16.7-16.7S19.8,58.9,29,58.9s16.7,7.5,16.7,16.7S38.2,92.2,29,92.2z M29,61.9
				c-7.5,0-13.7,6.1-13.7,13.7c0,7.5,6.1,13.7,13.7,13.7s13.7-6.1,13.7-13.7C42.7,68,36.6,61.9,29,61.9z"/>
		</g>
		<g>
			<path d="M91,92.2c-9.2,0-16.7-7.5-16.7-16.7S81.8,58.9,91,58.9s16.7,7.5,16.7,16.7S100.2,92.2,91,92.2z M91,61.9
				c-7.5,0-13.7,6.1-13.7,13.7c0,7.5,6.1,13.7,13.7,13.7s13.7-6.1,13.7-13.7C104.6,68,98.5,61.9,91,61.9z"/>
		</g>
		<g>
			<g>
				<g>
					<path d="M26.7,46.7c-3.4,0-6.2-2.7-6.2-6.1s2.8-6.1,6.2-6.1c3.4,0,6.2,2.7,6.2,6.1S30.1,46.7,26.7,46.7z M26.7,37.4
						c-1.8,0-3.2,1.4-3.2,3.1s1.5,3.1,3.2,3.1c1.8,0,3.2-1.4,3.2-3.1S28.4,37.4,26.7,37.4z"/>
				</g>
				<g>
					<path d="M36.1,54.9c-0.8,0-1.5-0.7-1.5-1.5c0-3.4-2.2-6.4-5.4-7.5c-0.8-0.3-1.2-1.1-0.9-1.9c0.3-0.8,1.1-1.2,1.9-0.9
						c4.4,1.5,7.4,5.7,7.4,10.4C37.6,54.2,37,54.9,36.1,54.9z"/>
				</g>
				<g>
					<path d="M17.2,54.9c-0.8,0-1.5-0.7-1.5-1.5c0-4.7,3-8.9,7.4-10.4c0.8-0.3,1.6,0.1,1.9,0.9c0.3,0.8-0.1,1.6-0.9,1.9
						c-3.2,1.1-5.4,4.1-5.4,7.5C18.7,54.2,18,54.9,17.2,54.9z"/>
				</g>
			</g>
			<g>
				<path d="M26.7,59C17.5,59,10,51.5,10,42.3s7.5-16.7,16.7-16.7s16.7,7.5,16.7,16.7S35.8,59,26.7,59z M26.7,28.6
					c-7.5,0-13.7,6.1-13.7,13.7S19.1,56,26.7,56s13.7-6.1,13.7-13.7S34.2,28.6,26.7,28.6z"/>
			</g>
		</g>
		<g>
			<g>
				<g>
					<path d="M93.3,46.7c-3.4,0-6.2-2.7-6.2-6.1s2.8-6.1,6.2-6.1c3.4,0,6.2,2.7,6.2,6.1S96.8,46.7,93.3,46.7z M93.3,37.4
						c-1.8,0-3.2,1.4-3.2,3.1s1.5,3.1,3.2,3.1c1.8,0,3.2-1.4,3.2-3.1S95.1,37.4,93.3,37.4z"/>
				</g>
				<g>
					<path d="M102.8,54.9c-0.8,0-1.5-0.7-1.5-1.5c0-3.4-2.2-6.4-5.4-7.5c-0.8-0.3-1.2-1.1-0.9-1.9c0.3-0.8,1.1-1.2,1.9-0.9
						c4.4,1.5,7.4,5.7,7.4,10.4C104.3,54.2,103.6,54.9,102.8,54.9z"/>
				</g>
				<g>
					<path d="M83.9,54.9c-0.8,0-1.5-0.7-1.5-1.5c0-4.7,3-8.9,7.4-10.4c0.8-0.3,1.6,0.1,1.9,0.9c0.3,0.8-0.1,1.6-0.9,1.9
						c-3.2,1.1-5.4,4.1-5.4,7.5C85.4,54.2,84.7,54.9,83.9,54.9z"/>
				</g>
			</g>
			<g>
				<path d="M93.3,59c-9.2,0-16.7-7.5-16.7-16.7s7.5-16.7,16.7-16.7S110,33.1,110,42.3S102.5,59,93.3,59z M93.3,28.6
					c-7.5,0-13.7,6.1-13.7,13.7S85.8,56,93.3,56S107,49.8,107,42.3S100.9,28.6,93.3,28.6z"/>
			</g>
		</g>
		<g>
			<g>
				<g>
					<path d="M59.4,31.2c-3.4,0-6.2-2.7-6.2-6.1s2.8-6.1,6.2-6.1c3.4,0,6.2,2.7,6.2,6.1S62.8,31.2,59.4,31.2z M59.4,21.9
						c-1.8,0-3.2,1.4-3.2,3.1s1.5,3.1,3.2,3.1c1.8,0,3.2-1.4,3.2-3.1S61.2,21.9,59.4,21.9z"/>
				</g>
				<g>
					<path d="M68.9,39.4c-0.8,0-1.5-0.7-1.5-1.5c0-3.4-2.2-6.4-5.4-7.5c-0.8-0.3-1.2-1.1-0.9-1.9s1.1-1.2,1.9-0.9
						c4.4,1.5,7.4,5.7,7.4,10.4C70.4,38.7,69.7,39.4,68.9,39.4z"/>
				</g>
				<g>
					<path d="M49.9,39.4c-0.8,0-1.5-0.7-1.5-1.5c0-4.7,3-8.9,7.4-10.4c0.8-0.3,1.6,0.1,1.9,0.9c0.3,0.8-0.1,1.6-0.9,1.9
						c-3.2,1.1-5.4,4.1-5.4,7.5C51.4,38.7,50.8,39.4,49.9,39.4z"/>
				</g>
			</g>
			<g>
				<path d="M59.4,43.3c-9.2,0-16.7-7.5-16.7-16.7S50.2,10,59.4,10c9.2,0,16.7,7.5,16.7,16.7S68.6,43.3,59.4,43.3z M59.4,13
					c-7.5,0-13.7,6.1-13.7,13.7s6.1,13.7,13.7,13.7c7.5,0,13.7-6.1,13.7-13.7S66.9,13,59.4,13z"/>
			</g>
		</g>
	</g>
	<g>
		<g>
			<path d="M41.4,109.5c0,0-0.1,0-0.1,0c-0.8-0.1-1.5-0.8-1.4-1.6c0-0.2,0.3-4.1,5.4-5.1c4.5-0.9,7.7-1.8,7.9-5.2
				c0.2-4.7,0-12.1,0-12.2c0-0.1,0-0.2,0-0.3c0.1-0.7,0.5-4.3-3.7-5.1c-3.1-0.6-4-0.8-5.9-1.3c-0.8-0.2-1.3-1-1.1-1.8
				c0.2-0.8,1-1.3,1.8-1.1c1.8,0.4,2.8,0.6,5.8,1.2c5.6,1.2,6.4,5.9,6.1,8.4c0,1.1,0.2,7.7,0,12.3c-0.3,6.1-6.3,7.3-10.3,8.1
				c-2.8,0.6-3,2.3-3,2.4C42.9,108.9,42.2,109.5,41.4,109.5z"/>
		</g>
		<g>
			<path d="M50.8,73.1c-2.3,0-5-0.5-8.1-1.5c-0.8-0.3-1.2-1.1-0.9-1.9c0.3-0.8,1.1-1.2,1.9-0.9c5.6,1.9,9.8,1.9,11.3-0.1
				c0.3-0.3,0.3-0.6,0.2-1c-0.6-2.8-7.8-7.8-18.7-12.9c-0.8-0.4-1.1-1.2-0.7-2c0.4-0.8,1.2-1.1,2-0.7c8.7,4.1,19.3,10,20.4,15
				c0.3,1.3,0,2.5-0.9,3.5C55.9,72.3,53.7,73.1,50.8,73.1z"/>
		</g>
		<g>
			<path d="M52.9,55.7c-1.9,0-5.6-1-12.9-6.7c-0.7-0.5-0.8-1.5-0.2-2.1c0.5-0.6,1.5-0.8,2.1-0.2c6.4,5,10.2,6.4,11.6,6
				c1.2-0.4,1.9-3.7,0.7-10.3c-0.2-0.8,0.4-1.6,1.2-1.8c0.8-0.1,1.6,0.4,1.8,1.2c1.5,8.1,0.6,12.7-2.8,13.7
				C54.1,55.6,53.6,55.7,52.9,55.7z"/>
		</g>
	</g>
	<g>
		<g>
			<path d="M78.4,109.5c-0.8,0-1.4-0.6-1.5-1.4c0-0.2-0.3-1.8-3-2.4c-4-0.8-10-2-10.3-8.1c-0.2-4.5,0-11.2,0-12.3
				c-0.4-2.5,0.4-7.3,6-8.4c3.1-0.6,4-0.8,5.9-1.2c0.8-0.2,1.6,0.3,1.8,1.1c0.2,0.8-0.3,1.6-1.1,1.8c-1.9,0.4-2.8,0.6-5.9,1.2
				c-4.3,0.9-3.8,4.7-3.7,5.1c0,0.1,0,0.2,0,0.3c0,0.1-0.2,7.5,0,12.2c0.1,3.4,3.4,4.3,7.9,5.2c5.1,1,5.4,4.9,5.4,5.1
				c0.1,0.8-0.6,1.5-1.4,1.6C78.5,109.5,78.4,109.5,78.4,109.5z"/>
		</g>
		<g>
			<path d="M69.1,73.1c-2.9,0-5.1-0.8-6.5-2.5c-0.9-1-1.2-2.3-0.9-3.6c1.2-5.1,12.2-11.2,21.3-15.4c0.8-0.3,1.6,0,2,0.7
				c0.3,0.8,0,1.6-0.7,2c-11.3,5.2-19,10.4-19.7,13.4c-0.1,0.4,0,0.7,0.2,1c2.1,2.5,7.7,1.2,10.8,0.2c0.8-0.3,1.6,0.2,1.9,1
				c0.3,0.8-0.2,1.6-1,1.9C73.7,72.7,71.2,73.1,69.1,73.1z"/>
		</g>
		<g>
			<path d="M66.8,55.7c-0.5,0-0.9-0.1-1.3-0.2c-3.4-1-4.3-5.6-2.8-13.7c0.2-0.8,0.9-1.3,1.8-1.2c0.8,0.2,1.4,0.9,1.2,1.8
				c-1.2,6.6-0.6,9.9,0.7,10.3c1.4,0.4,5.3-1,11.9-6.2c0.6-0.5,1.6-0.4,2.1,0.2c0.5,0.6,0.4,1.6-0.2,2.1
				C74.3,53.4,69.8,55.7,66.8,55.7z"/>
		</g>
	</g>
	<g>
		<path d="M98.4,110H20.4c-0.8,0-1.5-0.7-1.5-1.5s0.7-1.5,1.5-1.5h77.9c0.8,0,1.5,0.7,1.5,1.5S99.2,110,98.4,110z"/>
	</g>
</g>
</svg>
