<svg xmlns="http://www.w3.org/2000/svg" width="20" height="20" viewBox="0 0 20 20">
    <defs>
        <linearGradient id="a" x1="100%" x2="0%" y1="0%" y2="100%">
            <stop offset="0%" stop-color="#5B7598"/>
            <stop offset="100%" stop-color="#4D4F90"/>
        </linearGradient>
    </defs>
    <path fill="url(#a)" fill-rule="nonzero" d="M16.072 0C18.242 0 20 1.76 20 3.929V16.07A3.929 3.929 0 0 1 16.072 20H3.928A3.929 3.929 0 0 1 0 16.071V3.93A3.929 3.929 0 0 1 3.928 0zm0 1.818H3.928a2.11 2.11 0 0 0-2.11 2.11v12.143a2.11 2.11 0 0 0 2.11 2.11h12.144a2.11 2.11 0 0 0 2.11-2.11V3.93a2.11 2.11 0 0 0-2.11-2.11zM10 14.091a.91.91 0 1 1 0 1.818.91.91 0 0 1 0-1.818zm1.818-10a2.727 2.727 0 0 1 2.722 2.561l.005.166v.91a2.727 2.727 0 0 1-2.727 2.727.91.91 0 0 0-.903.803l-.006.106v.909a.91.91 0 0 1-1.812.106l-.006-.106v-.91a2.727 2.727 0 0 1 2.727-2.727.91.91 0 0 0 .903-.803l.006-.106v-.909a.91.91 0 0 0-.803-.903l-.106-.006H8.182a.91.91 0 0 0-.903.803l-.006.106v.91a.91.91 0 0 1-1.812.105l-.006-.106v-.909a2.727 2.727 0 0 1 2.56-2.722l.167-.005h3.636z"/>
</svg>
