<svg xmlns="http://www.w3.org/2000/svg" width="55" height="81" viewBox="0 0 55 81">
    <path fill="#CACCDA" fill-rule="nonzero" stroke="#CACCDA" d="M47.877 1c.46 0 .901.172 1.227.515L63.56 16.54c.307.324.441.744.441 1.182V72.39c0 4.1-3.297 7.36-7.42 7.36h-2.74l-.001.05h-3.451v-.05H8.693c-4.122 0-7.573-3.26-7.573-7.36V14.538H1v-3.433h.12V8.399C1.12 4.298 4.57 1 8.691 1zm-1.706 3.432H8.691c-2.223 0-4.121 1.754-4.121 3.966V72.39c0 2.193 1.898 3.928 4.122 3.928H56.58c2.224 0 3.968-1.716 3.968-3.928V19.496H47.877c-.958 0-1.706-.801-1.706-1.754V4.432zm3.278 55.869c.959 0 1.726.763 1.726 1.716s-.767 1.716-1.726 1.716H16.59a1.714 1.714 0 0 1-1.725-1.716c0-.953.767-1.716 1.725-1.716zm0-14.11c.959 0 1.726.762 1.726 1.716 0 .953-.767 1.716-1.726 1.716H16.59a1.714 1.714 0 0 1-1.725-1.716c0-.954.767-1.716 1.725-1.716zM30.28 32.08c.958 0 1.725.762 1.725 1.716 0 .953-.767 1.716-1.726 1.716H16.59a1.714 1.714 0 0 1-1.725-1.716c0-.954.767-1.716 1.725-1.716zM49.621 6.968v9.096h8.684l-8.684-9.096z"/>
</svg>
