<svg xmlns="http://www.w3.org/2000/svg" width="24" height="26" viewBox="0 0 24 26">
    <defs>
        <linearGradient id="a" x1="94.266%" x2="5.734%" y1="0%" y2="100%">
            <stop offset="0%" stop-color="#5A7398"/>
            <stop offset="100%" stop-color="#4E5290"/>
        </linearGradient>
        <linearGradient id="b" x1="2.838%" x2="94.266%" y1="100%" y2="0%">
            <stop offset="0%" stop-color="#4E5291"/>
            <stop offset="100%" stop-color="#5A7298"/>
        </linearGradient>
    </defs>
    <path fill="url(#a)" fill-rule="evenodd" stroke="url(#b)" stroke-width=".5" d="M1157.885 37.948L1152 43.017V23.484a4.47 4.47 0 0 1 4.467-4.467h13.648c2.446 0 4.467 2.02 4.467 4.467v9.997c0 2.446-2.02 4.467-4.467 4.467h-12.23zm5.388-11.167c.922 0 1.631.744 1.631 1.63 0 .922-.709 1.631-1.63 1.631-.887 0-1.631-.709-1.631-1.63 0-.887.744-1.631 1.63-1.631zm-5.636 0c.921 0 1.63.744 1.63 1.63 0 .922-.709 1.631-1.63 1.631-.887 0-1.631-.709-1.631-1.63 0-.887.744-1.631 1.63-1.631zm11.273 0c.922 0 1.63.744 1.63 1.63 0 .922-.708 1.631-1.63 1.631-.886 0-1.63-.709-1.63-1.63 0-.887.744-1.631 1.63-1.631zm-12.443-6.381h13.648c1.666 0 3.049 1.418 3.049 3.084v9.997c0 1.666-1.383 3.049-3.049 3.049h-12.762l-3.97 3.403V23.484c0-1.666 1.382-3.084 3.084-3.084z" transform="translate(-1151 -18)"/>
</svg>
