<svg xmlns="http://www.w3.org/2000/svg" width="12" height="12" viewBox="0 0 12 12">
    <defs>
        <linearGradient id="a" x1="0%" y1="100%" y2="0%">
            <stop offset="0%" stop-color="#4D4F90"/>
            <stop offset="100%" stop-color="#5B7598"/>
        </linearGradient>
    </defs>
    <path fill="url(#a)" fill-rule="evenodd" d="M.129.643L.643.13a.442.442 0 0 1 .624 0l4.725 4.725c1.575-1.575 3.166-3.15 4.74-4.725a.442.442 0 0 1 .625 0l.514.514a.442.442 0 0 1 0 .624c-1.575 1.575-3.165 3.15-4.74 4.725l4.74 4.74a.442.442 0 0 1 0 .625l-.514.514a.442.442 0 0 1-.624 0l-4.74-4.74c-1.576 1.575-3.15 3.165-4.726 4.74a.442.442 0 0 1-.624 0l-.514-.514a.442.442 0 0 1 0-.624c1.575-1.575 3.15-3.166 4.725-4.74L.129 1.266a.442.442 0 0 1 0-.624z"/>
</svg>
