<svg xmlns="http://www.w3.org/2000/svg" width="15" height="20" viewBox="0 0 15 20">
    <path fill="#536094" fill-rule="nonzero" d="M13.079 20c.848 0 1.536-.69 1.536-1.537V4.96c0-.424-.243-1.011-.543-1.312L10.967.544c-.3-.3-.89-.544-1.31-.544H1.538C.688 0 0 .688 0 1.536v16.928C0 19.312.685 20 1.536 20H13.08zm0-2.31a.772.772 0 0 1-.768.772H2.304a.768.768 0 0 1-.765-.772l.013-15.38c0-.427.347-.772.774-.772l6.516-.001c.427 0 .773.344.773.768v1.156c0 .85.688 1.539 1.538 1.539h1.172c.427 0 .772.346.772.772l-.019 11.917zm-2.94-6.402a.782.782 0 0 1 .005 1.098l-2.288 2.352a.764.764 0 0 1-1.091.003L4.438 12.39a.782.782 0 0 1 0-1.098.764.764 0 0 1 1.088 0l1.012 1.025V8.822c0-.429.345-.777.77-.777.425 0 .769.348.769.777v3.486l.974-1.015a.764.764 0 0 1 1.088-.005z"/>
</svg>
