<svg xmlns="http://www.w3.org/2000/svg" width="74" height="88" viewBox="0 0 74 88">
    <path fill="#ffffff" fill-rule="nonzero" stroke="#ffffff" stroke-width="2" d="M55.839 46.161c12.58 0 22.58 10 22.58 22.58V101h-6.451V68.742c0-9.032-7.097-16.13-16.13-16.13H52.29l-9.032 23.872c-.968.968-2.258 1.935-3.548 1.935s-2.581-.967-2.904-1.935l-9.032-23.871h-4.193c-9.033 0-16.13 7.097-16.13 16.129V101H1V68.742c0-12.58 10-22.58 22.58-22.58zM42.935 94.548V101h-6.451v-6.452h6.451zM23.581 78.42V101h-6.452V78.42h6.452zm38.71 0V101h-6.452V78.42h6.451zm-19.356 3.226v6.452h-6.451v-6.452h6.451zm2.259-29.032H34.87l5.161 13.548 5.162-13.548zM42.935 1c9.033 0 16.13 7.097 16.13 16.129v9.677c0 9.033-7.097 16.13-16.13 16.13h-6.451c-9.032 0-16.13-7.097-16.13-16.13V17.13C20.355 8.097 27.453 1 36.485 1zm0 6.452h-6.451c-5.484 0-9.678 4.193-9.678 9.677v9.677c0 5.484 4.194 9.678 9.678 9.678h6.451c5.484 0 9.678-4.194 9.678-9.678V17.13c0-5.484-4.194-9.677-9.678-9.677z" opacity=".6"/>
</svg>
