<svg xmlns="http://www.w3.org/2000/svg" width="16" height="16" viewBox="0 0 16 16">
    <path fill="#FF7F00" fill-rule="evenodd" d="M8.91.62v1.572H2.513a.93.93 0 0 0-.915.694l-.02.11-.005.115v10.356c0 .45.317.842.723.938l.103.017.114.007h10.36c.44 0 .822-.325.915-.741l.018-.106.004-.098.001-6.391h1.573v6.374a2.54 2.54 0 0 1-2.183 2.51l-.163.017-.167.006H2.513C1.25 16 .19 15.044.023 13.798l-.017-.165L0 13.467V3.111C0 1.85.938.808 2.183.643l.164-.017.166-.005H8.91zm6.351-.145l.13.118.124.136c.314.373.485.84.485 1.335 0 .423-.127.83-.37 1.183l-.113.148-.127.14L9.6 9.324a.74.74 0 0 1-.157.12l-.105.052-.103.034-2.44.61a.787.787 0 0 1-.749-.207.78.78 0 0 1-.223-.497l-.003-.124.02-.125.61-2.44a.733.733 0 0 1 .072-.183l.063-.099.071-.083L12.447.593c.75-.75 2.011-.789 2.814-.118zM12.393 2.87L7.922 7.34l-.24.958.96-.24 4.47-4.469-.72-.72zm1.378-1.287l-.086.032-.078.048-.048.041-.055.054.72.718.054-.053a.502.502 0 0 0 .143-.279l.006-.08a.502.502 0 0 0-.149-.36.53.53 0 0 0-.507-.12z"/>
</svg>
