<svg xmlns="http://www.w3.org/2000/svg" width="91" height="96" viewBox="0 0 91 96">
    <path fill="#CACCDA" fill-rule="evenodd" stroke="#D5D8E6" stroke-width="1.3" d="M77.93 43.196c1.04-.45 2.23-1.048 3.42-1.647 6.097 4.491 14.426 3.893 20.077-1.347 10.262-9.88 3.272-27.247-10.708-27.397-9.964-.15-17.549 8.983-15.616 18.863-11.749 8.534-17.846 13.175-14.723-4.49C75.55 20.14 70.493-3.065 53.836-3.065c-16.806 0-21.862 23.205-6.692 30.241 3.123 17.666-2.975 13.025-14.724 4.491 2.082-10.03-5.949-19.312-15.913-19.012-13.98.598-20.673 17.815-10.41 27.546 5.502 5.24 13.98 5.838 20.225 1.347a33.463 33.463 0 0 0 3.272 1.647c5.652 2.994 11.006 5.689 15.616 8.833 2.975 1.647 4.313 5.689.298 5.988-3.57.45-7.883-1.048-11.75-2.545-2.974-4.79-8.03-7.336-13.236-7.336-9.667 0-17.252 8.833-15.467 18.564 1.19 7.336 7.585 12.875 15.021 13.025 7.436.3 14.129-4.94 15.765-12.276 10.559.449 10.856 5.09 11.005 5.24V86.76c0 1.497-.446 2.845-1.487 3.892-1.041 1.048-2.38 1.498-3.867 1.498-3.42 0-6.544 1.646-8.477 4.341h-18.74c-1.04 0-1.784.749-1.784 1.797 0 .898.744 1.796 1.785 1.796h78.972c.892 0 1.784-.898 1.784-1.796 0-1.048-.892-1.797-1.784-1.797h-18.74a10.405 10.405 0 0 0-8.477-4.341c-1.487 0-2.825-.45-3.866-1.498-.893-1.047-1.488-2.395-1.339-3.742V72.838c0-.3.297-4.94 10.857-5.39 1.636 7.486 8.328 12.576 15.764 12.427 7.585-.3 13.832-5.84 15.17-13.175 1.636-9.88-5.949-18.713-15.765-18.564-5.205 0-10.113 2.695-13.087 7.336-3.272 1.347-6.99 2.695-10.41 2.695-6.247 0-3.124-4.79-.744-6.438 2.23-1.646 14.128-7.934 15.318-8.533zM47.737 93.199c1.785-1.647 2.677-4.043 2.529-6.288V72.689c0-.3-.149-8.085-13.98-8.684 0-1.347-.149-2.694-.595-4.042 2.826 1.048 5.651 1.647 8.477 1.647h1.785c6.99-.748 7.436-8.833 1.19-12.575-4.908-3.144-10.262-5.989-15.914-8.833-.743-.45-1.487-.898-2.23-1.198.892-1.197 1.784-2.395 2.379-3.743 12.344 8.833 22.606 13.474 19.483-6.886 1.933.449 3.866.449 5.8 0-3.123 20.36 7.138 15.72 19.482 6.886.595 1.348 1.488 2.546 2.38 3.743-.744.3-1.487.749-2.23 1.198-5.652 2.844-11.006 5.689-15.914 8.833-6.693 4.042-5.8 12.575 2.974 12.575 2.826 0 5.8-.599 8.478-1.647-.447 1.348-.595 2.695-.595 4.042-13.683.6-13.98 8.384-13.98 8.684V86.91c0 2.245.892 4.64 2.528 6.288 3.718 3.742 6.544 1.347 9.518 3.293H38.22c3.57-1.946 5.95.3 9.518-3.293zm34.653-55.392c.743-2.096 2.528-3.893 4.61-4.791 2.231 1.347 4.908 1.347 6.99 0 2.231.898 3.867 2.695 4.76 4.79-4.76 4.342-11.75 4.342-16.36 0zm8.18-7.336c-1.934 0-3.57-1.647-3.57-3.593s1.636-3.443 3.57-3.443c1.933 0 3.42 1.497 3.42 3.443s-1.487 3.593-3.42 3.593zm0-14.073c9.37 0 15.318 10.33 10.559 18.414-1.041-1.796-2.677-3.443-4.462-4.49a6.99 6.99 0 0 0 .893-3.444c0-3.893-3.124-7.036-6.99-7.036-3.867 0-6.99 3.143-6.99 7.036a6.99 6.99 0 0 0 .892 3.443c-1.933 1.048-3.42 2.695-4.61 4.491-4.61-8.084 1.19-18.414 10.708-18.414zm-44.915 5.69c.744-2.246 2.529-4.043 4.61-4.941 2.083 1.347 4.909 1.347 6.99 0 2.232.898 3.867 2.695 4.611 4.94a12.02 12.02 0 0 1-16.21 0zm8.18-7.486c-1.933 0-3.57-1.497-3.57-3.444 0-1.946 1.637-3.593 3.57-3.593 1.933 0 3.42 1.647 3.42 3.593 0 1.947-1.487 3.444-3.42 3.444zm0-14.073c9.37 0 15.319 10.33 10.56 18.414-1.042-1.796-2.678-3.443-4.462-4.491.595-1.048.892-2.096.892-3.294 0-3.892-3.123-7.186-6.99-7.186s-6.99 3.294-6.99 7.186c0 1.198.298 2.246.892 3.294-1.933 1.048-3.42 2.695-4.61 4.491C38.518 10.86 44.318.53 53.836.53zM16.953 16.4c9.518 0 15.467 10.33 10.708 18.413-1.19-1.796-2.677-3.443-4.61-4.49.594-1.049 1.04-2.247 1.04-3.444 0-3.893-3.271-7.036-7.138-7.036-3.718 0-6.99 3.143-6.99 7.036 0 1.197.446 2.395 1.041 3.443-1.933 1.048-3.42 2.695-4.61 4.491-4.76-8.084 1.19-18.414 10.559-18.414zm-3.42 10.479c0-1.946 1.635-3.443 3.42-3.443 1.933 0 3.57 1.497 3.57 3.443s-1.637 3.593-3.57 3.593c-1.785 0-3.42-1.647-3.42-3.593zM8.921 37.807a8.101 8.101 0 0 1 4.61-4.791c2.082 1.347 4.908 1.347 6.99 0a8.101 8.101 0 0 1 4.61 4.79c-4.61 4.342-11.6 4.342-16.21 0zm11.6 13.773c4.313 0 8.477 2.395 10.56 6.138 2.23 3.892 2.23 8.533 0 12.425a10.789 10.789 0 0 0-4.462-4.49 6.99 6.99 0 0 0 .892-3.444c0-3.892-3.123-7.036-6.99-7.036s-6.99 3.144-6.99 7.036a6.99 6.99 0 0 0 .893 3.443c-1.785 1.048-3.421 2.545-4.462 4.491-4.76-8.233 1.19-18.563 10.56-18.563zm-3.57 10.629c0-1.946 1.637-3.593 3.57-3.593 1.934 0 3.57 1.647 3.57 3.593s-1.636 3.443-3.57 3.443c-1.933 0-3.42-1.497-3.57-3.443zm-4.61 10.929c.893-2.246 2.529-4.042 4.61-4.94 2.232 1.347 4.909 1.347 7.14 0 2.082.898 3.718 2.694 4.61 4.94-4.61 4.191-11.75 4.191-16.36 0zm66.48 0c.892-2.246 2.528-4.042 4.61-4.94 2.23 1.347 4.908 1.347 7.139 0 2.082.898 3.718 2.694 4.61 4.94-4.61 4.191-11.75 4.191-16.36 0zm8.18-7.486c-1.934 0-3.421-1.497-3.421-3.443s1.487-3.593 3.42-3.593c1.934 0 3.57 1.647 3.57 3.593s-1.636 3.443-3.57 3.443zm0-14.072c9.369 0 15.318 10.33 10.559 18.563a10.789 10.789 0 0 0-4.462-4.49 6.99 6.99 0 0 0 .892-3.444c0-3.892-3.123-7.036-6.99-7.036s-6.99 3.144-6.99 7.036a6.99 6.99 0 0 0 .893 3.443c-1.785 1.048-3.421 2.545-4.462 4.491-2.23-3.892-2.23-8.533 0-12.425 2.23-3.743 6.246-6.138 10.56-6.138z"/>
</svg>
