<svg xmlns="http://www.w3.org/2000/svg" width="24" height="20" viewBox="0 0 24 20">
    <defs>
        <linearGradient id="a" x1="100%" x2="0%" y1="14.743%" y2="85.257%">
            <stop offset="0%" stop-color="#5B7598"/>
            <stop offset="100%" stop-color="#4D4F90"/>
        </linearGradient>
    </defs>
    <path fill="url(#a)" fill-rule="nonzero" d="M361.732 14.317c.193-.257.386-.58.45-.965h3.992c.386 0 .643-.258.643-.644s-.257-.644-.643-.644h-3.991c-.13-.58-.515-1.159-1.03-1.545a2.664 2.664 0 0 0-3.734.58c-.193.257-.322.579-.45.965h-13.325c-.387 0-.644.258-.644.644s.257.644.644.644h13.324c.13.579.515 1.158 1.03 1.544 1.16.902 2.897.644 3.734-.579zm-2.961-.45c-.322-.194-.515-.515-.58-.902-.064-.386 0-.708.258-1.03.45-.643 1.352-.772 1.931-.321.322.193.515.515.58.9v.194c0 .322-.065.58-.258.837-.45.643-1.352.772-1.931.322zm-6.566 7.788c.193-.257.386-.579.45-.965h13.519c.386 0 .643-.258.643-.644s-.257-.644-.643-.644h-13.518c-.13-.579-.515-1.158-1.03-1.544a2.664 2.664 0 0 0-3.734.579c-.193.257-.322.58-.45.965h-3.798c-.387 0-.644.258-.644.644s.257.644.644.644h3.798c.128.58.515 1.159 1.03 1.545 1.158.837 2.832.58 3.733-.58zm-2.961-.515c-.322-.193-.515-.515-.58-.9-.064-.387 0-.709.258-1.03.45-.644 1.352-.773 1.931-.323.322.194.515.515.58.902v.193c0 .322-.065.58-.258.837-.45.643-1.352.772-1.931.321zm9.977 7.79c.194-.258.387-.58.451-.966h6.502c.386 0 .643-.258.643-.644s-.257-.644-.643-.644h-6.502c-.129-.579-.515-1.158-1.03-1.545-.58-.45-1.287-.579-1.995-.515-.708.13-1.352.515-1.738 1.095-.193.322-.322.58-.451.965h-10.814c-.387 0-.644.258-.644.644s.257.644.644.644h10.878c.13.58.515 1.158 1.03 1.545 1.159.836 2.833.579 3.67-.58zm-2.96-.451a1.526 1.526 0 0 1-.58-.966v-.129-.128c0-.258.129-.45.258-.644.193-.322.515-.515.9-.58.387-.064.709.065 1.03.258.323.193.516.515.58.901v.193c0 .322-.064.58-.257.837-.451.58-1.288.708-1.932.258z" transform="translate(-343 -10)"/>
</svg>
