<svg xmlns="http://www.w3.org/2000/svg" width="90" height="96" viewBox="0 0 90 96">
    <path fill="#CACCDA" fill-rule="nonzero" stroke="#D3D6E4" stroke-width="1.6" d="M114.54-12.255a8.092 8.092 0 0 1 8.092 8.092v80.921a8.092 8.092 0 0 1-8.092 8.093H79.02l4.552 12.138h10.736a6.07 6.07 0 1 1 0 12.138H29.572a6.07 6.07 0 1 1 0-12.138h10.736L44.86 84.85H9.342a8.092 8.092 0 0 1-8.093-8.093V-4.163a8.092 8.092 0 0 1 8.093-8.092zm-20.23 113.29H29.571a2.023 2.023 0 0 0 0 4.046h64.737a2.023 2.023 0 0 0 0-4.046zM74.7 84.85H49.18L44.63 96.989h34.623L74.7 84.85zm43.886-16.185H5.296v8.092a4.046 4.046 0 0 0 4.046 4.047H114.54a4.046 4.046 0 0 0 4.046-4.047v-8.092zm-54.622 4.046v4.046h-4.046v-4.046h4.046zM114.54-8.209H9.342a4.046 4.046 0 0 0-4.046 4.046V64.62h113.29V-4.163a4.046 4.046 0 0 0-4.046-4.046zM17.434-.117v6.069h20.23v-6.07h4.046v7.22a23.514 23.514 0 0 1-6.933 16.736l-4.367 4.367 4.367 4.368A23.514 23.514 0 0 1 41.71 49.31v7.218h-4.046v-6.07h-20.23v6.07h-4.046V49.31a23.514 23.514 0 0 1 6.933-16.737l4.367-4.368-4.367-4.367A23.514 23.514 0 0 1 13.388 7.1V-.117h4.046zm86.99 52.599v4.046H51.825v-4.046h52.6zm6.07-8.092v4.046H51.825V44.39h58.669zm-75-4.046h-15.89a19.397 19.397 0 0 0-1.936 6.069H37.43a19.397 19.397 0 0 0-1.936-6.07zm75-4.046v4.046h-46.53v-4.046h46.53zm-50.576 0v4.046h-4.046v-4.046h4.046zm-32.369-5.232l-4.368 4.368c-.277.277-.526.574-.783.864H32.7c-.257-.29-.506-.587-.783-.864l-4.368-4.368zM65.987-.117v4.819l6.069 3.034 6.069-3.034v-4.82h4.046v4.82l6.547 3.273h5.591v4.046h-4.046v8.092c.004.77-.43 1.477-1.119 1.821l-6.973 3.476v4.819h-4.046v-4.82l-6.07-3.034-6.068 3.035v4.819H61.94v-4.82l-6.547-3.273h-5.592V18.09h4.046V9.998c0-.767.433-1.468 1.12-1.81l6.973-3.486v-4.82h4.046zM32.7 20.113H22.398c.257.29.506.587.783.864l4.368 4.368 4.368-4.368c.277-.277.526-.574.783-.864zm47.448-11.9l-6.07 3.035v7.615l6.07 3.035 6.07-3.035v-7.615l-6.07-3.034zm-16.184 0l-6.07 3.035v7.615l6.07 3.035 6.069-3.035v-7.615l-6.07-3.034zM37.429 9.999H17.67c.306 2.116.96 4.167 1.935 6.07h15.89a19.397 19.397 0 0 0 1.935-6.07zm64.972-6.069v4.046h-4.046V3.93h4.046zm8.093 0v4.046h-4.046V3.93h4.046z"/>
</svg>
