<svg xmlns="http://www.w3.org/2000/svg" width="70" height="78" viewBox="0 0 70 78">
    <path fill="#CACCDA" fill-rule="nonzero" stroke="#D5D8E6" stroke-width="3" d="M13.143 2C7.034 2 2 7.015 2 13.1v51.8C2 70.985 7.034 76 13.143 76h81.714C100.966 76 106 70.985 106 64.9V13.1C106 7.015 100.966 2 94.857 2H13.143zM14 9h80L56.52 43.778c-1.755 1.63-3.327 1.629-5.079 0L14 9zm-5 6l36.852 33.937c4.253 3.913 10.966 3.907 15.22 0L98 15v49.31c0 2.108-1.59 3.69-3.708 3.69H12.708C10.59 68 9 66.418 9 64.31V15z"/>
</svg>
