<svg xmlns="http://www.w3.org/2000/svg" width="22" height="23" viewBox="0 0 22 23">
    <defs>
        <linearGradient id="a" x1="100%" x2="0%" y1="0%" y2="100%">
            <stop offset="0%" stop-color="#5B7598"/>
            <stop offset="100%" stop-color="#4D4F90"/>
        </linearGradient>
    </defs>
    <path fill="url(#a)" fill-rule="nonzero" d="M103 16.822a4.322 4.322 0 0 0-4.321-4.322H85.32A4.322 4.322 0 0 0 81 16.822v13.356a4.322 4.322 0 0 0 4.321 4.322H98.68A4.322 4.322 0 0 0 103 30.178V16.822zm-2 13.356a2.321 2.321 0 0 1-2.321 2.322H85.32A2.321 2.321 0 0 1 83 30.178V16.822a2.321 2.321 0 0 1 2.321-2.322H98.68A2.321 2.321 0 0 1 101 16.822v13.356zm-5.938-.678a1 1 0 0 1-1 1h-4a1 1 0 1 1 0-2H91v-6h-.938a1 1 0 1 1 0-2H93v8h1.063a1 1 0 0 1 1 1zM90.5 18.062a1.5 1.5 0 1 1 3 0 1.5 1.5 0 0 1-3 0z" transform="translate(-81 -12)"/>
</svg>
