<svg xmlns="http://www.w3.org/2000/svg" width="23" height="14" viewBox="0 0 23 14">
    <path fill="#536094" fill-rule="nonzero" d="M11.375 0c4.235 0 8.229 2.366 10.964 6.469l.363.531-.363.531C19.604 11.634 15.61 14 11.375 14S3.146 11.634.411 7.531L.048 7l.363-.531C3.146 2.366 7.14 0 11.375 0zm0 1.931C7.987 1.931 4.744 3.766 2.396 7c2.348 3.234 5.59 5.069 8.979 5.069 3.388 0 6.631-1.835 8.979-5.069-2.348-3.234-5.59-5.069-8.979-5.069zm0 1.207c2.13 0 3.872 1.738 3.872 3.862s-1.742 3.862-3.872 3.862S7.503 9.124 7.503 7s1.742-3.862 3.872-3.862z"/>
</svg>
