<svg xmlns="http://www.w3.org/2000/svg" width="22" height="22" viewBox="0 0 22 22">
    <path fill="#FFF" fill-rule="nonzero" d="M16.077 14.133c1.136-1.483 1.837-3.324 1.837-5.333 0-4.854-3.989-8.8-8.896-8.8C4.11 0 .12 3.946.12 8.8c0 4.854 3.989 8.8 8.897 8.8 1.837 0 3.53-.55 4.956-1.507l5.536 5.477c.29.287.653.43 1.015.43.363 0 .75-.143 1.016-.43.556-.55.556-1.46 0-2.033l-5.464-5.404zM3.022 8.8c0-3.252 2.683-5.93 5.996-5.93 3.312 0 5.995 2.678 5.995 5.93 0 3.276-2.683 5.93-5.995 5.93-3.313 0-5.996-2.654-5.996-5.93z"/>
</svg>
