<svg xmlns="http://www.w3.org/2000/svg" width="15" height="18" viewBox="0 0 15 18">
    <defs>
        <linearGradient id="a" x1="81.152%" x2="18%" y1="0%" y2="100%">
            <stop offset="0%" stop-color="#5B7698"/>
            <stop offset="100%" stop-color="#4E5291"/>
        </linearGradient>
    </defs>
    <path fill="url(#a)" fill-rule="nonzero" d="M7.2 9.36c2.755 0 5.386 1.42 7.04 3.802.102.148.16.33.16.518v3.456c0 .477-.358.864-.8.864H.8c-.442 0-.8-.387-.8-.864V13.68c0-.187.056-.37.16-.518C1.813 10.78 4.445 9.36 7.2 9.36zm0 1.728c-2.168 0-4.242 1.075-5.6 2.89v2.294h11.2v-2.295c-1.36-1.814-3.434-2.889-5.6-2.889zM7.2 0a4.326 4.326 0 0 1 4.32 4.32A4.326 4.326 0 0 1 7.2 8.64a4.326 4.326 0 0 1-4.32-4.32A4.326 4.326 0 0 1 7.2 0zm0 1.728A2.595 2.595 0 0 0 4.608 4.32 2.595 2.595 0 0 0 7.2 6.912 2.595 2.595 0 0 0 9.792 4.32 2.595 2.595 0 0 0 7.2 1.728z"/>
</svg>
