<svg xmlns="http://www.w3.org/2000/svg" width="12" height="12" viewBox="0 0 12 12">
    <defs>
        <linearGradient id="a" x1="100%" x2="0%" y1="0%" y2="100%">
            <stop offset="0%" stop-color="#5B7598"/>
            <stop offset="100%" stop-color="#4D4F90"/>
        </linearGradient>
    </defs>
    <path fill="url(#a)" fill-rule="nonzero" d="M12 2.357A2.357 2.357 0 0 0 9.643 0H2.357A2.357 2.357 0 0 0 0 2.357v7.286A2.357 2.357 0 0 0 2.357 12h7.286A2.357 2.357 0 0 0 12 9.643V2.357zm-1.09 7.286c0 .699-.568 1.266-1.267 1.266H2.357c-.7 0-1.266-.567-1.266-1.266V2.357c0-.699.567-1.266 1.266-1.266h7.286c.7 0 1.266.567 1.266 1.266v7.286zm-3.24-.37a.545.545 0 0 1-.545.545H4.943a.545.545 0 1 1 0-1.09h.512V5.454h-.512a.545.545 0 1 1 0-1.091h1.602v4.363h.58c.301 0 .545.245.545.546zM5.182 3.034a.818.818 0 1 1 1.636 0 .818.818 0 0 1-1.636 0z"/>
</svg>
