<?xml version="1.0" encoding="utf-8"?>
<!-- Generator: Adobe Illustrator 21.1.0, SVG Export Plug-In . SVG Version: 6.00 Build 0)  -->
<svg version="1.1" id="Invite" xmlns="http://www.w3.org/2000/svg" xmlns:xlink="http://www.w3.org/1999/xlink" x="0px" y="0px"
	 viewBox="0 0 100 100" style="enable-background:new 0 0 100 100;" xml:space="preserve">
<g id="Momemtem">
	<g>
		<path d="M20.8,80.9c-0.4,0-0.9-0.2-1.2-0.5c-0.5-0.6-0.4-1.6,0.2-2.1l26.7-22c2-1.7,4.9-1.7,7,0l26.7,21.9
			c0.6,0.5,0.7,1.5,0.2,2.1s-1.5,0.7-2.1,0.2L51.6,58.6c-0.9-0.8-2.2-0.8-3.1,0l-26.7,22C21.5,80.7,21.1,80.9,20.8,80.9z"/>
	</g>
	<g>
		<path d="M58.2,63.6c-0.4,0-0.9-0.2-1.2-0.5c-0.5-0.6-0.4-1.6,0.2-2.1l21-17.3c0.6-0.5,1.6-0.4,2.1,0.2c0.5,0.6,0.4,1.6-0.2,2.1
			l-21,17.3C58.9,63.5,58.5,63.6,58.2,63.6z"/>
	</g>
	<g>
		<path d="M41.8,63.6c-0.3,0-0.7-0.1-1-0.3L19.9,46c-0.6-0.5-0.7-1.5-0.2-2.1s1.5-0.7,2.1-0.2l21,17.3c0.6,0.5,0.7,1.5,0.2,2.1
			C42.7,63.4,42.2,63.6,41.8,63.6z"/>
	</g>
	<g>
		<path d="M73.5,51.1c-0.8,0-1.5-0.7-1.5-1.5V28.1H28v21.5c0,0.8-0.7,1.5-1.5,1.5S25,50.4,25,49.6v-23c0-0.8,0.7-1.5,1.5-1.5h47
			c0.8,0,1.5,0.7,1.5,1.5v23C75,50.4,74.3,51.1,73.5,51.1z"/>
	</g>
	<g>
		<path d="M39.7,28.1c-0.4,0-0.9-0.2-1.2-0.6c-0.5-0.6-0.4-1.6,0.2-2.1l7.8-6.3c2-1.7,4.9-1.7,6.9,0l7.7,6.3
			c0.6,0.5,0.7,1.5,0.2,2.1s-1.5,0.7-2.1,0.2l-7.7-6.3c-0.9-0.8-2.2-0.8-3.1,0l-7.8,6.3C40.4,28,40,28.1,39.7,28.1z"/>
	</g>
	<g>
		<path d="M76.1,82.2H23.9c-3.3,0-5.9-2.7-5.9-6V42.8c0-0.5,0.2-0.9,0.6-1.2l7-5.6c0.6-0.5,1.6-0.4,2.1,0.2c0.5,0.6,0.4,1.6-0.2,2.1
			L21,43.6v32.6c0,1.6,1.3,3,2.9,3h52.1c1.6,0,2.9-1.3,2.9-3V43.8l-6.4-5.2c-0.6-0.5-0.7-1.5-0.2-2.1c0.5-0.6,1.5-0.7,2.1-0.2l7,5.7
			c0.3,0.3,0.5,0.7,0.5,1.2v33.1C82,79.5,79.3,82.2,76.1,82.2z"/>
	</g>
</g>
</svg>
