<svg xmlns="http://www.w3.org/2000/svg" width="20" height="20" viewBox="0 0 20 20">
    <defs>
        <linearGradient id="a" x1="93.329%" x2="6.671%" y1="0%" y2="100%">
            <stop offset="0%" stop-color="#5A7398"/>
            <stop offset="100%" stop-color="#4E5290"/>
        </linearGradient>
    </defs>
    <path fill="url(#a)" fill-rule="evenodd" d="M15.504 0c2.027 0 3.71 1.626 3.801 3.632l.004.173v8.063c0 2.027-1.626 3.709-3.632 3.8l-.173.005H5.713L.69 20V3.805A3.808 3.808 0 0 1 4.321.004L4.496 0h11.008zm0 1.518H4.496c-1.205 0-2.21.968-2.282 2.15l-.005.137v12.828l2.87-2.459.131-.048h10.294c1.187 0 2.182-.95 2.254-2.122l.004-.136V3.805c0-1.24-1.031-2.287-2.258-2.287zM9.986 6.262c.845 0 1.517.682 1.517 1.517 0 .855-.662 1.517-1.517 1.517A1.513 1.513 0 0 1 8.469 7.78c0-.826.69-1.517 1.517-1.517zm-4.547 0c.846 0 1.517.682 1.517 1.517 0 .855-.662 1.517-1.517 1.517A1.513 1.513 0 0 1 3.922 7.78c0-.826.69-1.517 1.517-1.517zm9.093 0c.846 0 1.517.682 1.517 1.517 0 .855-.662 1.517-1.517 1.517a1.513 1.513 0 0 1-1.517-1.517c0-.826.691-1.517 1.517-1.517z"/>
</svg>
