<?xml version="1.0" encoding="utf-8"?>
<!-- Generator: Adobe Illustrator 21.1.0, SVG Export Plug-In . SVG Version: 6.00 Build 0)  -->
<svg version="1.1" id="Layer_1" xmlns="http://www.w3.org/2000/svg" xmlns:xlink="http://www.w3.org/1999/xlink" x="0px" y="0px"
	 viewBox="0 0 100 100" style="enable-background:new 0 0 100 100;" xml:space="preserve">
<g>
	<path d="M63.4,82H24.9c-3,0-5.5-2.5-5.5-5.5v-53c0-3,2.5-5.5,5.5-5.5h38.6c2.7,0,4.9,2.2,4.9,4.9v14.7h-3V22.9
		c0-1.1-0.8-1.9-1.9-1.9H24.9c-1.4,0-2.5,1.1-2.5,2.5v53c0,1.4,1.1,2.5,2.5,2.5h38.5c1.1,0,1.9-0.8,1.9-1.9v-2.7h3v2.7
		C68.3,79.8,66.1,82,63.4,82z"/>
</g>
<g>
	<path d="M18.7,81.9c-3,0-5.4-2.4-5.4-5.4V23.4c0-3,2.4-5.4,5.4-5.4v3c-1.3,0-2.4,1.1-2.4,2.4v53.1c0,1.3,1.1,2.4,2.4,2.4V81.9z"/>
</g>
<g>
	<rect x="59.6" y="31.7" width="3" height="5.9"/>
</g>
<g>
	<rect x="53.1" y="29.2" width="3" height="13.6"/>
</g>
<g>
	<rect x="46.5" y="25.7" width="3" height="19.1"/>
</g>
<g>
	<rect x="28.1" y="56.5" width="19.1" height="3"/>
</g>
<g>
	<rect x="28.1" y="64" width="22.5" height="3"/>
</g>
<g>
	<rect x="28.1" y="71.5" width="31.1" height="3"/>
</g>
<g>
	<rect x="39.9" y="34.2" width="3" height="10.6"/>
</g>
<g>
	<rect x="33.4" y="30.2" width="3" height="14.6"/>
</g>
<g>
	<rect x="26.8" y="31.7" width="3" height="13.1"/>
</g>
<path d="M86.3,73.3l-8-8.1c2.1-2.6,3.3-5.8,3.3-9.4C81.6,47.6,75,41,66.9,41s-14.7,6.6-14.7,14.8s6.6,14.8,14.7,14.8
	c3.5,0,6.7-1.2,9.3-3.3l8,8.1c0.3,0.3,0.7,0.4,1.1,0.4s0.8-0.1,1.1-0.4C86.8,74.9,86.8,73.9,86.3,73.3z M66.9,67.7
	c-6.5,0-11.7-5.3-11.7-11.8s5.2-11.8,11.7-11.8s11.7,5.3,11.7,11.8S73.4,67.7,66.9,67.7z"/>
<g>
	<path d="M64.4,57c-0.4,0-0.8,0.1-1.2,0.3c0-0.2,0.1-0.4,0.1-0.6c0-1.5-1.3-2.8-2.8-2.8s-2.8,1.3-2.8,2.8s1.3,2.8,2.8,2.8
		c0.4,0,0.8-0.1,1.2-0.3c0,0.2-0.1,0.4-0.1,0.6c0,1.5,1.3,2.8,2.8,2.8s2.8-1.3,2.8-2.8S65.9,57,64.4,57z M60.3,56.7
		c0-0.1,0.1-0.2,0.2-0.2s0.2,0.1,0.2,0.2C60.7,56.9,60.3,56.9,60.3,56.7z M64.2,59.8c0-0.1,0.1-0.2,0.2-0.2s0.2,0.1,0.2,0.2
		C64.6,60,64.2,60,64.2,59.8z"/>
	<path d="M73.5,53.3c-0.6,0-1.2,0.2-1.6,0.5c0-0.1,0-0.2,0-0.3c0-1.5-1.3-2.8-2.8-2.8s-2.8,1.3-2.8,2.8s1.3,2.8,2.8,2.8
		c0.6,0,1.2-0.2,1.6-0.5c0,0.1,0,0.2,0,0.3c0,1.5,1.3,2.8,2.8,2.8s2.8-1.3,2.8-2.8S75,53.3,73.5,53.3z M68.9,53.5
		c0-0.1,0.1-0.2,0.2-0.2s0.2,0.1,0.2,0.2C69.3,53.7,68.9,53.7,68.9,53.5z M73.3,56.1c0-0.1,0.1-0.2,0.2-0.2s0.2,0.1,0.2,0.2
		C73.7,56.3,73.3,56.3,73.3,56.1z"/>
</g>
<path d="M74.3,54.8l-4.4-2.6c-0.7-0.4-1.5-0.2-2,0.4l-3.8,5.1l-2.7-2.1c-0.6-0.5-1.6-0.4-2.1,0.2c-0.5,0.6-0.4,1.6,0.2,2.1l3.9,3.1
	c0.3,0.2,0.6,0.3,0.9,0.3c0.1,0,0.1,0,0.2,0c0.4-0.1,0.8-0.3,1-0.6l3.9-5.2l3.2,1.9c0.7,0.4,1.6,0.2,2.1-0.5
	C75.2,56.1,75,55.2,74.3,54.8z"/>
</svg>
