<?xml version="1.0" encoding="utf-8"?>
<!-- Generator: Adobe Illustrator 21.1.0, SVG Export Plug-In . SVG Version: 6.00 Build 0)  -->
<svg version="1.1" id="Layer_1" xmlns="http://www.w3.org/2000/svg" xmlns:xlink="http://www.w3.org/1999/xlink" x="0px" y="0px"
	 viewBox="0 0 58 58" style="enable-background:new 0 0 58 58;" xml:space="preserve">
<style type="text/css">
	.st0{fill:#FFFFFF;}
</style>
<g>
	<g>
		<path class="st0" d="M52.5,53.1h-47c-0.6,0-1-0.4-1-1V5.9c0-0.6,0.4-1,1-1h47c0.6,0,1,0.4,1,1v46.1C53.5,52.6,53.1,53.1,52.5,53.1
			z M6.5,51.1h45V6.9h-45V51.1z"/>
	</g>
	<g>
		<path class="st0" d="M52.5,44.2c-0.3,0-0.5-0.1-0.7-0.3L35.7,28.1L24.3,39.2c-0.4,0.4-1,0.4-1.4,0c-0.4-0.4-0.4-1,0-1.4L35,25.9
			c0.4-0.4,1-0.4,1.4,0l16.8,16.5c0.4,0.4,0.4,1,0,1.4C53,44.1,52.8,44.2,52.5,44.2z"/>
	</g>
	<g>
		<path class="st0" d="M37.4,53.1c-0.3,0-0.5-0.1-0.7-0.3L19.3,35.7L6.2,48.5c-0.4,0.4-1,0.4-1.4,0c-0.4-0.4-0.4-1,0-1.4l13.8-13.5
			c0.4-0.4,1-0.4,1.4,0l18.1,17.8c0.4,0.4,0.4,1,0,1.4C37.9,53,37.7,53.1,37.4,53.1z"/>
	</g>
	<g>
		<path class="st0" d="M22.2,24.5c-2.3,0-4.1-1.8-4.1-4s1.8-4,4.1-4s4.1,1.8,4.1,4S24.4,24.5,22.2,24.5z M22.2,18.4
			c-1.2,0-2.1,0.9-2.1,2s0.9,2,2.1,2s2.1-0.9,2.1-2S23.3,18.4,22.2,18.4z"/>
	</g>
</g>
</svg>
