<svg xmlns="http://www.w3.org/2000/svg" width="26" height="24" viewBox="0 0 26 24">
    <defs>
        <linearGradient id="a" x1="100%" x2="0%" y1="6.878%" y2="93.122%">
            <stop offset="0%" stop-color="#5B7598"/>
            <stop offset="100%" stop-color="#4D4F90"/>
        </linearGradient>
    </defs>
    <path fill="url(#a)" fill-rule="nonzero" stroke="url(#a)" d="M18.886 0c.27 0 .465.232.465.503v4.416h3.86c1.46 0 2.627 1.2 2.632 2.66v8.95c0 1.466-1.167 2.66-2.627 2.66h-2.778v4.308c0 .27-.195.503-.465.503H5.87c-.27 0-.465-.232-.465-.503V19.19H2.627C1.167 19.19 0 17.99 0 16.53V7.58c0-1.46 1.168-2.66 2.627-2.66h3.86V.503c0-.27.194-.503.464-.503zm.573 14.378H6.38v8.649h13.08v-8.649zm-2.77 5.404c.288 0 .525.216.525.487 0 .27-.23.486-.52.486H9.147c-.288 0-.519-.216-.519-.486s.23-.487.519-.487zm6.516-13.89H2.627c-.924 0-1.654.762-1.654 1.686v8.952c0 .924.73 1.686 1.654 1.686h2.778v-4.324c0-.27.195-.487.465-.487h14.098c.27 0 .464.217.464.487v4.324h2.779c.924 0 1.654-.762 1.654-1.686h-.006V7.578c0-.924-.73-1.686-1.654-1.686zm-9.37 10.76c.521 0 .939.216.939.487 0 .27-.418.486-.94.486H9.567c-.522 0-.939-.216-.939-.486s.417-.487.94-.487zm7.19-8.274c.187 0 .337.217.337.487s-.15.486-.337.486H17.55c-.187 0-.337-.216-.337-.486s.15-.487.337-.487zM18.378.973H7.46v3.946h10.92V.973z"/>
</svg>
