<?xml version="1.0" encoding="utf-8"?>
<!-- Generator: Adobe Illustrator 21.1.0, SVG Export Plug-In . SVG Version: 6.00 Build 0)  -->
<svg version="1.1" id="Results-02_1_" fill="#ffffff" xmlns="http://www.w3.org/2000/svg" xmlns:xlink="http://www.w3.org/1999/xlink" x="0px"
	 y="0px" viewBox="0 0 120 120" style="enable-background:new 0 0 120 120;" xml:space="preserve">
<g>
	<path d="M95.5,110.5h-71c-0.8,0-1.5-0.7-1.5-1.5V27.8c0-0.8,0.7-1.5,1.5-1.5h10.6c0.8,0,1.5,0.7,1.5,1.5s-0.7,1.5-1.5,1.5H26v78.2
		h68V29.3h-9.5c-0.8,0-1.5-0.7-1.5-1.5s0.7-1.5,1.5-1.5h11c0.8,0,1.5,0.7,1.5,1.5V109C97,109.8,96.3,110.5,95.5,110.5z"/>
</g>
<g>
	<path d="M84.5,36.8h-49c-0.8,0-1.5-0.7-1.5-1.5v-15c0-0.8,0.7-1.5,1.5-1.5h49c0.8,0,1.5,0.7,1.5,1.5v15
		C86,36.1,85.3,36.8,84.5,36.8z M37,33.8h46v-12H37V33.8z"/>
</g>
<g>
	<path d="M47.7,21.9c-0.1,0-0.2,0-0.4,0c-0.8-0.2-1.3-1-1.1-1.8c1.6-6.2,7.2-10.5,13.6-10.5c6.3,0,11.9,4.3,13.5,10.4
		c0.2,0.8-0.3,1.6-1.1,1.8c-0.8,0.2-1.6-0.3-1.8-1.1c-1.3-4.8-5.6-8.2-10.6-8.2c-5,0-9.4,3.4-10.7,8.2
		C48.9,21.4,48.3,21.9,47.7,21.9z"/>
</g>
<g>
	<g>
		<path d="M53.7,50.2h-12c-0.3,0-0.5-0.2-0.5-0.5s0.2-0.5,0.5-0.5h12c0.3,0,0.5,0.2,0.5,0.5S53.9,50.2,53.7,50.2z"/>
	</g>
	<g>
		<path d="M53.7,83.3h-12c-0.3,0-0.5-0.2-0.5-0.5s0.2-0.5,0.5-0.5h12c0.3,0,0.5,0.2,0.5,0.5S53.9,83.3,53.7,83.3z"/>
	</g>
	<g>
		<path d="M52.7,53.9h-10c-0.3,0-0.5-0.2-0.5-0.5s0.2-0.5,0.5-0.5h10c0.3,0,0.5,0.2,0.5,0.5S52.9,53.9,52.7,53.9z"/>
	</g>
	<g>
		<path d="M52.2,79.5h-9c-0.3,0-0.5-0.2-0.5-0.5s0.2-0.5,0.5-0.5h9c0.3,0,0.5,0.2,0.5,0.5S52.4,79.5,52.2,79.5z"/>
	</g>
	<g>
		<path d="M53.9,63H41.4c-0.3,0-0.5-0.2-0.5-0.5s0.2-0.5,0.5-0.5h12.5c0.3,0,0.5,0.2,0.5,0.5S54.2,63,53.9,63z"/>
	</g>
	<g>
		<path d="M55.2,67H40.1c-0.3,0-0.5-0.2-0.5-0.5s0.2-0.5,0.5-0.5h15.1c0.3,0,0.5,0.2,0.5,0.5S55.5,67,55.2,67z"/>
	</g>
	<g>
		<path d="M53.7,70.4H41.6c-0.3,0-0.5-0.2-0.5-0.5s0.2-0.5,0.5-0.5h12.1c0.3,0,0.5,0.2,0.5,0.5S54,70.4,53.7,70.4z"/>
	</g>
	<g>
		<path d="M51.3,72.7H44c-0.3,0-0.5-0.2-0.5-0.5s0.2-0.5,0.5-0.5h7.3c0.3,0,0.5,0.2,0.5,0.5S51.6,72.7,51.3,72.7z"/>
	</g>
</g>
<g>
	<g>
		<circle cx="53.7" cy="49.7" r="1.5"/>
	</g>
	<g>
		<circle cx="52.7" cy="53.5" r="1"/>
	</g>
	<g>
		<circle cx="41.4" cy="62.5" r="1"/>
	</g>
	<g>
		<circle cx="41.6" cy="69.9" r="1"/>
	</g>
	<g>
		<circle cx="52.2" cy="79" r="1"/>
	</g>
	<g>
		<circle cx="47.6" cy="57.9" r="1.5"/>
	</g>
	<g>
		<circle cx="40.1" cy="66.5" r="1.5"/>
	</g>
	<g>
		<circle cx="53.7" cy="82.8" r="1.5"/>
	</g>
	<g>
		<circle cx="50.3" cy="56" r="0.8"/>
	</g>
	<g>
		<circle cx="43.9" cy="60.1" r="0.8"/>
	</g>
	<g>
		<circle cx="44" cy="72.2" r="0.8"/>
	</g>
	<g>
		<circle cx="49.6" cy="76.5" r="0.8"/>
	</g>
</g>
<g>
	<g>
		<circle cx="41.7" cy="49.7" r="1.5"/>
	</g>
	<g>
		<circle cx="42.7" cy="53.4" r="1"/>
	</g>
	<g>
		<circle cx="53.9" cy="62.5" r="1"/>
	</g>
	<g>
		<circle cx="53.7" cy="69.9" r="1"/>
	</g>
	<g>
		<circle cx="43.2" cy="79" r="1"/>
	</g>
	<g>
		<circle cx="55.2" cy="66.5" r="1.5"/>
	</g>
	<g>
		<circle cx="41.7" cy="82.8" r="1.5"/>
	</g>
	<g>
		<circle cx="45" cy="56" r="0.8"/>
	</g>
	<g>
		<circle cx="51.4" cy="60.1" r="0.8"/>
	</g>
	<g>
		<circle cx="51.3" cy="72.2" r="0.8"/>
	</g>
	<g>
		<circle cx="45.7" cy="76.5" r="0.8"/>
	</g>
	<g>
		<circle cx="47.6" cy="75" r="1.5"/>
	</g>
</g>
<g>
	<path d="M82.5,52.7H67c-0.8,0-1.5-0.7-1.5-1.5s0.7-1.5,1.5-1.5h15.5c0.8,0,1.5,0.7,1.5,1.5S83.3,52.7,82.5,52.7z"/>
</g>
<g>
	<path d="M82.5,60.7H60c-0.8,0-1.5-0.7-1.5-1.5s0.7-1.5,1.5-1.5h22.5c0.8,0,1.5,0.7,1.5,1.5S83.3,60.7,82.5,60.7z"/>
</g>
<g>
	<path d="M82.5,68.7H67c-0.8,0-1.5-0.7-1.5-1.5s0.7-1.5,1.5-1.5h15.5c0.8,0,1.5,0.7,1.5,1.5S83.3,68.7,82.5,68.7z"/>
</g>
<g>
	<path d="M82.5,76.7H60c-0.8,0-1.5-0.7-1.5-1.5s0.7-1.5,1.5-1.5h22.5c0.8,0,1.5,0.7,1.5,1.5S83.3,76.7,82.5,76.7z"/>
</g>
<g>
	<path d="M82.5,93.7h-45c-0.8,0-1.5-0.7-1.5-1.5s0.7-1.5,1.5-1.5h45c0.8,0,1.5,0.7,1.5,1.5S83.3,93.7,82.5,93.7z"/>
</g>
<g>
	<path d="M88.5,101.9h-57c-0.8,0-1.5-0.7-1.5-1.5v-61c0-0.8,0.7-1.5,1.5-1.5h57c0.8,0,1.5,0.7,1.5,1.5v61
		C90,101.2,89.3,101.9,88.5,101.9z M33,98.9h54v-58H33V98.9z"/>
</g>
</svg>
