<svg xmlns="http://www.w3.org/2000/svg" width="45" height="45" viewBox="0 0 45 45">
    <path fill="#D5D8E6" fill-rule="nonzero" d="M14.904 17.372a5.531 5.531 0 0 1 11.002.305l5.441 2.015a2.34 2.34 0 0 1-1.625 4.386L25.4 22.477l-.478 3.714c-.008.059-.022.115-.032.174l7.02 13.119a2.734 2.734 0 0 1-5.185 1.738l-4.45-5.453-4.417 5.073a2.737 2.737 0 0 1-3.18 2.2 2.734 2.734 0 0 1-2.2-3.18l5.16-9.147a5.527 5.527 0 0 1-3.686-5.933zm14.763 8.514a.359.359 0 0 1 .501.089c.017.03.66.936.665 2.185.01 1.005-.465 2.22-1.952 3.185a.36.36 0 0 1-.395-.601c1.315-.875 1.62-1.791 1.627-2.584.002-.741-.307-1.386-.458-1.65-.052-.086-.077-.124-.077-.124a.358.358 0 0 1 .09-.5zm-1.672.494a.359.359 0 0 1 .505.062c.018.03.538.676.545 1.603.007.666-.314 1.458-1.22 2.095a.36.36 0 0 1-.418-.585c.75-.544.911-1.055.918-1.51.003-.476-.226-.91-.339-1.082-.036-.058-.054-.08-.054-.08a.359.359 0 0 1 .063-.503zM15.882 10.848c.247 0 .514.03.803.099a.36.36 0 1 1-.166.7 2.795 2.795 0 0 0-.637-.08c-1.088 0-1.478.793-1.647 1.236-.03.084-.048.145-.056.181l-.009.037a.356.356 0 0 1-.419.288.36.36 0 0 1-.288-.42c.007-.03.094-.506.438-1.011a2.312 2.312 0 0 1 1.981-1.03zm-.366-1.687a5.12 5.12 0 0 1 1.373.198.36.36 0 0 1-.19.694 4.474 4.474 0 0 0-1.183-.173c-1.702-.001-2.407 1.239-2.688 1.897-.089.214-.118.34-.118.34a.361.361 0 0 1-.435.266.361.361 0 0 1-.265-.436c.01-.027.17-.695.685-1.386a3.397 3.397 0 0 1 2.821-1.4zM19.23 4.43a5.685 5.685 0 1 1 10.436 4.515A5.685 5.685 0 0 1 19.23 4.43z"/>
</svg>
