<svg xmlns="http://www.w3.org/2000/svg" width="20" height="20" viewBox="0 0 20 20">
    <defs>
        <linearGradient id="a" x1="99.997%" x2=".003%" y1="0%" y2="100%">
            <stop offset="0%" stop-color="#5B7598"/>
            <stop offset="100%" stop-color="#4D4F90"/>
        </linearGradient>
    </defs>
    <path fill="url(#a)" fill-rule="nonzero" d="M10.375 0c.596 0 1.134.352 1.377.888l.048.118.686 1.931.007.01.01.007.712.294.012.002.01-.003 1.85-.88a1.513 1.513 0 0 1 1.626.211l.093.087.53.529c.422.422.553 1.052.345 1.602l-.05.117-.878 1.849-.003.012.002.012.294.713.007.009.01.007 1.93.686c.563.2.952.712 1.001 1.298l.005.127v.75c0 .595-.352 1.134-.888 1.377l-.118.047-1.93.687-.01.006-.007.01-.294.712-.002.012.003.012.879 1.85c.256.536.17 1.174-.21 1.624l-.086.093-.53.53a1.512 1.512 0 0 1-1.602.346l-.117-.05-1.85-.88-.011-.002-.012.002-.712.295-.01.007-.007.01-.685 1.93c-.2.562-.712.951-1.299 1l-.126.006h-.75a1.516 1.516 0 0 1-1.377-.888l-.047-.118-.687-1.93-.007-.01-.01-.008-.712-.293-.012-.002-.012.002-1.849.88a1.516 1.516 0 0 1-1.624-.21l-.093-.086-.53-.53a1.512 1.512 0 0 1-.347-1.602l.05-.117.88-1.85.002-.011-.003-.013-.293-.71-.007-.01-.011-.008-1.93-.686c-.562-.2-.951-.712-1-1.298L0 10.375v-.75c0-.595.352-1.134.887-1.377l.118-.047 1.932-.687.01-.007.007-.01.293-.712.002-.012-.002-.011-.88-1.85a1.515 1.515 0 0 1 .211-1.624l.086-.094.53-.53a1.513 1.513 0 0 1 1.601-.346l.117.05 1.85.88.012.002.012-.002.71-.293.012-.008.007-.01.686-1.93C8.4.443 8.912.054 9.499.004L9.625 0h.75zm0 1.481h-.75l-.017.006-.011.015-.687 1.93a1.514 1.514 0 0 1-.72.832l-.129.06-.711.293c-.35.144-.742.151-1.095.022l-.13-.055-1.85-.878-.017-.003-.016.008-.53.53-.009.017.003.018.879 1.85c.163.341.19.732.08 1.092l-.048.133-.292.71a1.516 1.516 0 0 1-.76.795l-.132.054-1.933.688-.013.01-.006.017v.75l.006.017.014.011 1.932.687c.358.128.654.386.83.72l.061.128.293.711c.145.351.151.743.022 1.096l-.055.13-.878 1.849-.003.018.008.015.531.531.016.008.018-.002 1.85-.88a1.524 1.524 0 0 1 1.086-.08l.14.05.71.292c.35.144.634.417.794.76l.054.13.687 1.933.01.014.018.006h.75l.017-.006.011-.014.687-1.932c.128-.359.387-.655.72-.83l.129-.061.71-.293c.35-.145.743-.152 1.095-.023l.13.055 1.85.88.018.001.016-.007.53-.53.008-.017-.002-.017-.88-1.85a1.516 1.516 0 0 1-.079-1.093l.048-.133.292-.71c.145-.35.418-.634.76-.794l.131-.054 1.932-.687.014-.011.006-.018v-.75l-.006-.017-.014-.01-1.931-.687a1.514 1.514 0 0 1-.831-.721l-.06-.129-.294-.71a1.513 1.513 0 0 1-.022-1.095l.054-.13.88-1.85.002-.018-.009-.017-.53-.53-.015-.008-.017.002-1.85.88c-.341.162-.732.19-1.092.08l-.133-.048-.71-.293a1.518 1.518 0 0 1-.795-.76l-.054-.131-.687-1.93a.032.032 0 0 0-.03-.022zM10 6.173A3.83 3.83 0 0 1 13.827 10 3.83 3.83 0 0 1 10 13.827 3.83 3.83 0 0 1 6.173 10 3.83 3.83 0 0 1 10 6.173zm0 1.481A2.348 2.348 0 0 0 7.654 10 2.348 2.348 0 0 0 10 12.346 2.348 2.348 0 0 0 12.346 10 2.348 2.348 0 0 0 10 7.654z"/>
</svg>
