<svg xmlns="http://www.w3.org/2000/svg" width="45" height="45" viewBox="0 0 45 45">
    <path fill="#D5D8E6" fill-rule="nonzero" d="M43.061 40.09a1.939 1.939 0 1 1 0 3.877H1.939a1.939 1.939 0 1 1 0-3.877zM17.147 16.141c.241-.031.488-.033.74.002l.153.021c.113.012.225.029.337.048l11.518 1.616a2.79 2.79 0 0 1-.775 5.529l-6.024-.845c-.047.385-.134.77-.264 1.151l-1.16 3.386 2.86-.709a3.026 3.026 0 0 1 1.737.085l7.445 2.636a3.025 3.025 0 0 1-2.02 5.702l-6.589-2.334-8.5 2.108-.061.011a5.654 5.654 0 0 1-3.425-.078 5.688 5.688 0 0 1-3.539-7.224l2.489-7.27a5.688 5.688 0 0 1 5.078-3.835zm-.074-9.533a6.672 6.672 0 1 1 12.689 4.133 6.672 6.672 0 0 1-12.689-4.133z"/>
</svg>
