<svg xmlns="http://www.w3.org/2000/svg" width="20" height="20" viewBox="0 0 20 20">
    <path fill="#536094" fill-rule="nonzero" d="M15.923 20c.871 0 1.577-.69 1.577-1.537V4.96c0-.424-.25-1.011-.558-1.312L13.756.544C13.447.244 12.842 0 12.41 0H4.078C3.207 0 2.5.688 2.5 1.536v16.928c0 .848.703 1.536 1.577 1.536h11.846zm0-2.31a.782.782 0 0 1-.788.772H4.865a.778.778 0 0 1-.785-.772l.013-15.38c0-.427.356-.772.794-.772l6.688-.001c.438 0 .793.344.793.768v1.156c0 .85.707 1.539 1.578 1.539h1.203c.438 0 .793.346.792.772l-.019 11.917zm-3.018-6.402c.31.301.313.793.006 1.098l-2.349 2.352a.799.799 0 0 1-1.119.003L7.055 12.39a.767.767 0 0 1 0-1.098.799.799 0 0 1 1.116 0l1.04 1.025V8.822c0-.429.353-.777.789-.777.436 0 .79.348.79.777v3.486l.999-1.015a.799.799 0 0 1 1.116-.005z"/>
</svg>
