<?xml version="1.0" encoding="utf-8"?>
<!-- Generator: Adobe Illustrator 21.1.0, SVG Export Plug-In . SVG Version: 6.00 Build 0)  -->
<svg version="1.1" id="Layer_1" fill="#ffffff" xmlns="http://www.w3.org/2000/svg" xmlns:xlink="http://www.w3.org/1999/xlink" x="0px" y="0px"
	 viewBox="0 0 100 100" style="enable-background:new 0 0 100 100;" xml:space="preserve">
<path id="ic_genetic_profile" d="M93.3,0C97,0,100,3,100,6.7l0,0v66.7c0,3.7-3,6.7-6.7,6.7l0,0H64.1l3.8,10h8.8c2.8,0,5,2.2,5,5
	s-2.2,5-5,5l0,0H23.3c-2.8,0-5-2.2-5-5s2.2-5,5-5l0,0h8.8l3.8-10H6.7C3,80,0,77,0,73.3l0,0V6.7C0,3,3,0,6.7,0l0,0H93.3z M76.7,93.3
	H23.3c-0.9,0-1.7,0.7-1.7,1.7c0,0.9,0.7,1.7,1.7,1.7l0,0h53.3c0.9,0,1.7-0.7,1.7-1.7C78.3,94.1,77.6,93.3,76.7,93.3L76.7,93.3z
	 M60.5,80h-21l-3.7,10h28.5L60.5,80z M96.7,66.7H3.3v6.7c0,1.8,1.5,3.3,3.3,3.3l0,0h86.7c1.8,0,3.3-1.5,3.3-3.3l0,0V66.7z M51.7,70
	v3.3h-3.3V70H51.7z M93.3,3.3H6.7c-1.8,0-3.3,1.5-3.3,3.3l0,0v56.7h93.3V6.7C96.7,4.8,95.2,3.3,93.3,3.3L93.3,3.3z M13.3,10v5H30v-5
	h3.3v5.9c0,5.2-2,10.1-5.7,13.8l0,0L24,33.3l3.6,3.6c3.7,3.6,5.7,8.6,5.7,13.8l0,0v5.9H30v-5H13.3v5H10v-5.9c0-5.2,2-10.1,5.7-13.8
	l0,0l3.6-3.6l-3.6-3.6C12,26.1,10,21.1,10,15.9l0,0V10H13.3z M85,53.3v3.3H41.7v-3.3H85z M90,46.7V50H41.7v-3.3H90z M28.2,43.3H15.1
	c-0.8,1.6-1.3,3.3-1.6,5l0,0h16.3C29.6,46.6,29,44.9,28.2,43.3L28.2,43.3z M90,40v3.3H51.7V40H90z M48.3,40v3.3H45V40H48.3z
	 M21.7,35.7l-3.6,3.6c-0.2,0.2-0.4,0.5-0.6,0.7l0,0h8.5c-0.2-0.2-0.4-0.5-0.6-0.7l0,0L21.7,35.7z M53.3,10v4l5,2.5l5-2.5v-4h3.3v4
	l5.4,2.7h4.6V20h-3.3v6.7c0,0.6-0.4,1.2-0.9,1.5l0,0L66.7,31v4h-3.3v-4l-5-2.5l-5,2.5v4H50v-4l-5.4-2.7H40V25h3.3v-6.7
	c0-0.6,0.4-1.2,0.9-1.5l0,0L50,14v-4H53.3z M25.9,26.7h-8.5c0.2,0.2,0.4,0.5,0.6,0.7l0,0l3.6,3.6l3.6-3.6
	C25.5,27.1,25.7,26.9,25.9,26.7L25.9,26.7z M65,16.9l-5,2.5v6.3l5,2.5l5-2.5v-6.3L65,16.9z M51.7,16.9l-5,2.5v6.3l5,2.5l5-2.5v-6.3
	L51.7,16.9z M29.8,18.3H13.5c0.3,1.7,0.8,3.4,1.6,5l0,0h13.1C29,21.8,29.6,20.1,29.8,18.3L29.8,18.3z M83.3,13.3v3.3H80v-3.3H83.3z
	 M90,13.3v3.3h-3.3v-3.3H90z"/>
</svg>
