<svg xmlns="http://www.w3.org/2000/svg" width="20" height="20" viewBox="0 0 20 20">
    <path fill="#536094" fill-rule="nonzero" stroke="#536094" d="M17.51 3.49A8.446 8.446 0 0 0 11.5 1c-2.27 0-4.405.884-6.01 2.49A8.447 8.447 0 0 0 3 9.5v1.293L.854 8.647a.5.5 0 0 0-.707.707l3 3a.498.498 0 0 0 .708 0l3-3a.5.5 0 0 0-.707-.707l-2.146 2.146V9.5c0-4.136 3.364-7.5 7.5-7.5s7.5 3.364 7.5 7.5-3.364 7.5-7.5 7.5a.5.5 0 0 0 0 1c2.27 0 4.405-.884 6.01-2.49a8.447 8.447 0 0 0 2.49-6.01c0-2.27-.884-4.405-2.49-6.01h-.002z"/>
</svg>
