<svg xmlns="http://www.w3.org/2000/svg" width="16" height="22" viewBox="0 0 16 22">
    <defs>
        <linearGradient id="a" x1="73.962%" x2="26.038%" y1="0%" y2="100%">
            <stop offset="0%" stop-color="#5B7598"/>
            <stop offset="100%" stop-color="#4D4F90"/>
        </linearGradient>
    </defs>
    <path fill="url(#a)" fill-rule="nonzero" stroke="url(#a)" d="M14.384 22a.848.848 0 0 1-.507-.17l-6.261-4.696-6.263 4.697a.84.84 0 0 1-.431.165.843.843 0 0 1-.922-.843V2.538A2.535 2.535 0 0 1 2.54 0h10.152a2.535 2.535 0 0 1 2.538 2.538v18.615a.847.847 0 0 1-.846.847zm-6.768-6.77c.182 0 .36.06.507.17l5.415 4.06V2.539a.846.846 0 0 0-.846-.846H2.54a.847.847 0 0 0-.847.846V19.46l5.416-4.062a.842.842 0 0 1 .508-.169z"/>
</svg>
